<svg xmlns="http://www.w3.org/2000/svg" xmlns:xlink="http://www.w3.org/1999/xlink" width="16" height="16" viewBox="0 0 16 16">
  <defs>
    <path id="alarm-a" d="M8,1.47832061 C11.8656716,1.47832061 15,4.61229719 15,8.47796884 C15,12.3436405 11.8656716,15.4779688 8,15.4779688 C4.13432836,15.4779688 1,12.3436405 1,8.47796884 C1,4.61229719 4.13432836,1.47832061 8,1.47832061 Z M8,2.64481139 C4.78335595,2.64481139 2.16649078,5.26167656 2.16649078,8.47796884 C2.16649078,11.6946129 4.78335595,14.3114781 8,14.3114781 C11.2166441,14.3114781 13.8335092,11.6946129 13.8335092,8.47796884 C13.8335092,5.26167656 11.2166441,2.64481139 8,2.64481139 Z M8.00007036,3.22823267 C8.32264938,3.22823267 8.58331574,3.48889903 8.58331574,3.81147806 L8.58331574,3.81147806 L8.58331574,8.23647429 L10.8870999,10.5402584 C11.1146992,10.7682096 11.1146992,11.1372231 10.8870999,11.3651742 C10.7731243,11.4791498 10.6239711,11.5361376 10.4744661,11.5361376 C10.3253128,11.5361376 10.1761596,11.4791498 10.062184,11.3651742 L10.062184,11.3651742 L7.58884366,8.89042675 C7.53431831,8.83695672 7.49175335,8.77187808 7.4611488,8.70117101 C7.43265491,8.62940861 7.41682497,8.55307311 7.41682497,8.47814472 L7.41682497,8.47814472 L7.41682497,3.81147806 C7.41682497,3.48889903 7.67749133,3.22823267 8.00007036,3.22823267 Z M3.33196141,0.393441975 C4.35211317,-0.194376508 5.51508619,-0.107839496 6.07792854,0.548223622 C4.52976029,0.921810235 3.15536962,1.73335855 2.0926529,2.84989707 C1.80630685,2.03412744 2.31356852,0.983371117 3.33196141,0.393441975 Z M9.9209106,0.548399511 C10.483753,-0.108015385 11.6470777,-0.193497067 12.666526,0.394673193 C13.6863259,0.983547006 14.1935876,2.03289622 13.9061862,2.84761053 C12.8431177,1.73353444 11.4694306,0.921986123 9.9209106,0.548399511 Z"/>
  </defs>
  <g fill="none" fill-rule="evenodd">
    <mask id="alarm-b" fill="#fff">
      <use xlink:href="#alarm-a"/>
    </mask>
    <g fill="#222" mask="url(#alarm-b)">
      <rect width="16" height="16"/>
    </g>
  </g>
</svg>
