<svg xmlns="http://www.w3.org/2000/svg" width="16" height="16" viewBox="0 0 16 16">
  <path fill-rule="evenodd" d="M8,12.6428571 C7.05502381,12.6428571 6.17628571,12.3574762 5.44209524,11.8709048 L11.8709048,5.44209524 C12.3577857,6.17628571 12.6428571,7.05502381 12.6428571,8 C12.6428571,10.5600714 10.5600714,12.6428571 8,12.6428571 M8,3.35714286 C8.94497619,3.35714286 9.82371429,3.64252381 10.5579048,4.12909524 L4.12909524,10.5579048 C3.64221429,9.82371429 3.35714286,8.94497619 3.35714286,8 C3.35714286,5.43992857 5.43992857,3.35714286 8,3.35714286 M8,1.5 C4.41014286,1.5 1.5,4.41014286 1.5,8 C1.5,11.5898571 4.41014286,14.5 8,14.5 C11.5898571,14.5 14.5,11.5898571 14.5,8 C14.5,4.41014286 11.5898571,1.5 8,1.5"/>
</svg>
