<svg xmlns="http://www.w3.org/2000/svg" xmlns:xlink="http://www.w3.org/1999/xlink" width="16" height="16" viewBox="0 0 16 16">
  <defs>
    <path id="drag-a" d="M10.6176937,11.61 C10.7716323,11.6135365 10.9091851,11.7070282 10.9691264,11.8488612 C11.0290678,11.9906943 11.0002522,12.1544964 10.8955058,12.2673581 L10.8955058,12.2673581 L8.27781204,14.8889647 C8.20434187,14.9630398 8.10433115,15.004706 8,15.004706 C7.89566885,15.004706 7.79565813,14.9630398 7.72218796,14.8889647 L7.72218796,14.8889647 L5.10449421,12.2673581 C4.99974775,12.1544964 4.97093221,11.9906943 5.03087357,11.8488612 C5.09081493,11.7070282 5.22836769,11.6135365 5.38230625,11.61 L5.38230625,11.61 Z M14,7 C14.5522847,7 15,7.44771525 15,8 C15,8.55228475 14.5522847,9 14,9 L2,9 C1.44771525,9 1,8.55228475 1,8 C1,7.44771525 1.44771525,7 2,7 L14,7 Z M8,1 C8.10433115,1 8.20434187,1.0416662 8.27781204,1.11574132 L8.27781204,1.11574132 L10.8955058,3.73734791 C11.0002522,3.85020963 11.0290678,4.01401169 10.9691264,4.15584476 C10.9091851,4.29767783 10.7716323,4.39116949 10.6176937,4.39470598 L10.6176937,4.39470598 L5.38230625,4.39470598 C5.22836769,4.39116949 5.09081493,4.29767783 5.03087357,4.15584476 C4.97093221,4.01401169 4.99974775,3.85020963 5.10449421,3.73734791 L5.10449421,3.73734791 L7.72218796,1.11574132 C7.79565813,1.0416662 7.89566885,1 8,1 Z"/>
  </defs>
  <use fill="#222" xlink:href="#drag-a"/>
</svg>
