<svg xmlns="http://www.w3.org/2000/svg" xmlns:xlink="http://www.w3.org/1999/xlink" width="16" height="16" viewBox="0 0 16 16">
  <defs>
    <path id="forward-a" d="M9.4430533,2.30740063 C9.03283578,1.89753312 8.36850741,1.89753312 7.95828989,2.30740063 C7.54807237,2.71761815 7.54807237,3.38229654 7.95828989,3.79251406 L11.1154247,6.94999891 L1.05004485,6.94999891 C0.470070076,6.94999891 0,7.42006898 0,8.00004375 C0,8.57966851 0.470070076,9.0500886 1.05004485,9.0500886 L11.1154247,9.0500886 L7.95828989,12.2072234 C7.54807237,12.617441 7.54807237,13.2821193 7.95828989,13.6923369 C8.16339865,13.8974456 8.43186011,14 8.70067159,14 C8.96913306,14 9.23794454,13.8974456 9.4430533,13.6923369 L15.1360464,8.00004375 L9.4430533,2.30740063 Z"/>
  </defs>
  <g fill="none" fill-rule="evenodd">
    <mask id="forward-b" fill="#fff">
      <use xlink:href="#forward-a"/>
    </mask>
    <g fill="#222" mask="url(#forward-b)">
      <rect width="16" height="16"/>
    </g>
  </g>
</svg>
