<svg xmlns="http://www.w3.org/2000/svg" xmlns:xlink="http://www.w3.org/1999/xlink" width="16" height="16" viewBox="0 0 16 16">
  <defs>
    <path id="circle-a" d="M8,1 C11.8659091,1 15,4.13409091 15,8 C15,11.8659091 11.8659091,15 8,15 C4.13409091,15 1,11.8659091 1,8 C1,4.13409091 4.13409091,1 8,1 Z M7.93655455,10.1996227 C7.43255455,10.1996227 7.06600909,10.5664864 7.06600909,11.0933955 C7.06600909,11.5977136 7.4211,11.9874864 7.93655455,11.9874864 C8.46346364,11.9874864 8.80773636,11.5977136 8.80773636,11.0933955 C8.79596364,10.5664864 8.45200909,10.1996227 7.93655455,10.1996227 Z M8.10837273,4.01257727 C7.38673636,4.01257727 6.72205455,4.21875909 6.30969091,4.48253182 L6.30969091,4.48253182 L6.65332727,5.49053182 C6.93969091,5.27289545 7.39819091,5.14689545 7.79941818,5.14689545 C8.44087273,5.15835 8.73869091,5.47939545 8.73869091,5.96016818 C8.73869091,6.40721364 8.45200909,6.80812273 8.01673636,7.32357727 C7.47837273,7.97680455 7.27187273,8.60712273 7.32946364,9.20307727 L7.32946364,9.20307727 L7.35205455,9.50089545 L8.58978182,9.50089545 L8.57832727,9.26003182 C8.55541818,8.71021364 8.73869091,8.24025909 9.18541818,7.71335 C9.67828182,7.15175909 10.1826,6.57935 10.1826,5.75430455 C10.1826,4.83762273 9.52937273,4.01257727 8.10837273,4.01257727 Z"/>
  </defs>
  <g fill="none" fill-rule="evenodd">
    <mask id="circle-b" fill="#fff">
      <use xlink:href="#circle-a"/>
    </mask>
    <g fill="#222" mask="url(#circle-b)">
      <rect width="16" height="16"/>
    </g>
  </g>
</svg>
