<svg xmlns="http://www.w3.org/2000/svg" xmlns:xlink="http://www.w3.org/1999/xlink" width="16" height="16" viewBox="0 0 16 16">
  <defs>
    <path id="help-a" d="M8,1 C11.8659091,1 15,4.13409091 15,8 C15,11.8659091 11.8659091,15 8,15 C4.13409091,15 1,11.8659091 1,8 C1,4.13409091 4.13409091,1 8,1 Z M8,1.63636364 C4.49109091,1.63636364 1.63636364,4.49109091 1.63636364,8 C1.63636364,11.5089091 4.49109091,14.3636364 8,14.3636364 C11.5089091,14.3636364 14.3636364,11.5089091 14.3636364,8 C14.3636364,4.49109091 11.5089091,1.63636364 8,1.63636364 Z M7.93655455,10.1996227 C8.45200909,10.1996227 8.79596364,10.5664864 8.80773636,11.0933955 C8.80773636,11.5977136 8.46346364,11.9874864 7.93655455,11.9874864 C7.4211,11.9874864 7.06600909,11.5977136 7.06600909,11.0933955 C7.06600909,10.5664864 7.43255455,10.1996227 7.93655455,10.1996227 Z M8.10837273,4.01257727 C9.52937273,4.01257727 10.1826,4.83762273 10.1826,5.75430455 C10.1826,6.57935 9.67828182,7.15175909 9.18541818,7.71335 C8.73869091,8.24025909 8.55541818,8.71021364 8.57832727,9.26003182 L8.58978182,9.50089545 L7.35205455,9.50089545 L7.32946364,9.20307727 C7.27187273,8.60712273 7.47837273,7.97680455 8.01673636,7.32357727 C8.45200909,6.80812273 8.73869091,6.40721364 8.73869091,5.96016818 C8.73869091,5.47939545 8.44087273,5.15835 7.79941818,5.14689545 C7.39819091,5.14689545 6.93969091,5.27289545 6.65332727,5.49053182 L6.30969091,4.48253182 C6.72205455,4.21875909 7.38673636,4.01257727 8.10837273,4.01257727 Z"/>
  </defs>
  <g fill="none" fill-rule="evenodd">
    <mask id="help-b" fill="#fff">
      <use xlink:href="#help-a"/>
    </mask>
    <g fill="#222" mask="url(#help-b)">
      <rect width="16" height="16"/>
    </g>
  </g>
</svg>
