<svg xmlns="http://www.w3.org/2000/svg" xmlns:xlink="http://www.w3.org/1999/xlink" width="16" height="16" viewBox="0 0 16 16">
  <defs>
    <path id="hotter-a" d="M12.7632932,7.03463636 C12.6446114,8.987 11.7521114,9.57213636 10.655975,9.701 C10.7717932,9.27845455 12.4616568,2.84672727 8.55692953,1 C10.2146568,3.4535 7.78788408,5.66931818 7.07038408,7.54754545 C6.09961135,6.69672727 5.34742953,5.70909091 6.02611135,4.32181818 C2.93242953,6.38872727 4.99997499,10.6619091 5.79733862,12.0635 C4.68624772,11.7672727 3.61047499,11.3234091 3.3355659,10.0560909 C1.86842953,13.5268182 5.57079317,14.6531818 7.52379317,15 C6.96729317,14.0607273 5.15429317,10.5289091 7.90752044,8.3815 C6.61442953,11.4672273 11.3766568,12.5805455 10.8023386,14.5911364 C12.2971568,13.5675455 14.0920204,11.3775 12.7632932,7.03463636"/>
  </defs>
  <g fill="none" fill-rule="evenodd">
    <mask id="hotter-b" fill="#fff">
      <use xlink:href="#hotter-a"/>
    </mask>
    <g fill="#222" mask="url(#hotter-b)">
      <rect width="16" height="16"/>
    </g>
  </g>
</svg>
