<svg xmlns="http://www.w3.org/2000/svg" xmlns:xlink="http://www.w3.org/1999/xlink" width="16" height="16" viewBox="0 0 16 16">
  <defs>
    <path id="wide-a" d="M15,2 L15,14.0909091 L1,14.0909091 L1,2 L15,2 Z M13.7272727,3.27272727 L2.27272727,3.27272727 L2.27272727,12.5 L13.7272727,12.5 L13.7272727,3.27272727 Z M6.57534091,7.87920455 L10.5596136,11.8634773 L2.59106818,11.8634773 L6.57534091,7.87920455 Z M11.7370773,5.60881818 L13.4091227,7.28118182 L13.4091227,11.8636364 L11.4596227,11.8636364 L8.47094091,8.87495455 L11.7370773,5.60881818 Z M4.27784545,4.24623636 C4.98102727,4.24623636 5.55057273,4.8161 5.55057273,5.51896364 C5.55057273,6.22182727 4.98102727,6.79169091 4.27784545,6.79169091 C3.57498182,6.79169091 3.00511818,6.22182727 3.00511818,5.51896364 C3.00511818,4.8161 3.57498182,4.24623636 4.27784545,4.24623636 Z"/>
  </defs>
  <use fill="#231F20" fill-rule="evenodd" xlink:href="#wide-a"/>
</svg>
