<svg xmlns="http://www.w3.org/2000/svg" xmlns:xlink="http://www.w3.org/1999/xlink" width="16" height="16" viewBox="0 0 16 16">
  <defs>
    <path id="likeheart-a" d="M11.2588333,9.97416667 L9.9905,9.97416667 L9.9905,6.50216667 L10.0028333,5.93183333 L10.0235,5.30783333 C9.81316667,5.51883333 9.6665,5.65683333 9.5845,5.7225 L8.89483333,6.2765 L8.2835,5.51316667 L10.2165,3.97416667 L11.2588333,3.97416667 L11.2588333,9.97416667 Z M7.35183333,7.29416667 L5.66083333,7.29416667 L5.66083333,9.0425 L5.0905,9.0425 L5.0905,7.29416667 L3.40783333,7.29416667 L3.40783333,6.72783333 L5.0905,6.72783333 L5.0905,4.9715 L5.66083333,4.9715 L5.66083333,6.72783333 L7.35183333,6.72783333 L7.35183333,7.29416667 Z M14.7325,2.2675 C13.0425,0.5775 10.3021667,0.5775 8.61216667,2.2675 L8.00016667,2.8795 L7.38816667,2.2675 C5.69783333,0.5775 2.95783333,0.5775 1.2675,2.2675 C-0.4225,3.9575 -0.4225,6.69783333 1.2675,8.38783333 L8.00016667,15.1201667 L14.7325,8.38783333 C16.4225,6.69783333 16.4225,3.9575 14.7325,2.2675 L14.7325,2.2675 Z"/>
  </defs>
  <g fill="none" fill-rule="evenodd">
    <mask id="likeheart-b" fill="#fff">
      <use xlink:href="#likeheart-a"/>
    </mask>
    <g fill="#222" mask="url(#likeheart-b)">
      <rect width="16" height="16"/>
    </g>
  </g>
</svg>
