<svg xmlns="http://www.w3.org/2000/svg" xmlns:xlink="http://www.w3.org/1999/xlink" width="16" height="16" viewBox="0 0 16 16">
  <defs>
    <path id="moderator-a" d="M12,8 L12.9404564,10.7055728 L15.8042261,10.763932 L13.5216904,12.4944272 L14.351141,15.236068 L12,13.6 L9.64885899,15.236068 L10.4783096,12.4944272 L8.939,11.327 L8.77558509,11.203569 L8.19577393,10.763932 L11.0595436,10.7055728 L12,8 Z M3.58598521,11.032894 C3.7365263,11.2337941 3.8870674,11.4341584 4.03760849,11.5852352 C4.53905497,12.035787 5.24140148,12.4874103 6.09375335,12.4370513 C6.76171166,12.3541139 7.32538236,12.0622302 7.78476547,11.7062733 L9.319,12.87 L9.27760797,13.0047989 C8.2937457,13.4770205 7.19140391,13.7415622 6.0273224,13.7415622 C4.09439623,13.7415622 2.33236901,13.0118933 1,11.8134576 C1.23679417,11.7293475 1.51001821,11.6763099 1.83092253,11.5852352 C2.4330869,11.4341584 3.38562092,11.2337941 3.58598521,11.032894 Z M5.94326583,2.39808173e-14 C6.69597128,2.39808173e-14 7.29759991,0.150541091 7.84940534,0.350905389 C8.60157506,0.651451838 9.9055502,1.40415729 9.9055502,2.5072324 C9.9055502,3.66120219 9.9055502,4.26283082 9.70465017,5.16554163 C9.80483232,5.21536483 9.9055502,5.26572378 9.95537341,5.36590593 C10.1059145,5.61662917 10.0560913,6.16843459 9.75500911,6.92114004 C9.75500911,7.12150434 9.65429122,7.924033 9.10302154,8.27493839 C8.99151522,8.68326579 8.96260203,9.25707335 8.7717916,9.7512176 L5.29912475,9.82275365 L7.253,11.303 L7.19540197,11.3469867 C6.78613985,11.6377437 6.35030418,11.8354227 5.99362477,11.8354227 C5.59236044,11.8354227 5.1412729,11.6345227 4.74000857,11.3339762 C4.33874424,11.032894 3.98730312,10.6819886 3.63639773,10.2807243 C3.38567449,10.0300011 3.2351334,9.52855459 3.0347691,8.17422051 C2.73368692,7.97385621 2.38278153,7.57259188 2.38278153,6.77006322 C2.38278153,6.56969892 2.33242259,6.36879889 2.33242259,6.16843459 C2.23224044,5.91717561 2.13152255,5.66698811 2.28259938,5.41626487 C2.28259938,5.31554698 2.43260474,5.26572378 2.48296368,5.21536483 C2.43260474,4.71391835 2.33242259,3.5604843 2.33242259,2.55759134 C2.33242259,2.00578592 2.88422801,1.30343941 3.48585664,1.00289296 C3.58603879,0.952534019 3.68675667,0.85235187 3.73657988,0.802528662 C3.98730312,0.60162863 4.13784421,0.451087539 4.68964963,0.350905389 C5.09091396,2.39808173e-14 5.3416372,2.39808173e-14 5.94326583,2.39808173e-14 Z"/>
  </defs>
  <g fill="none" fill-rule="evenodd">
    <mask id="moderator-b" fill="#fff">
      <use xlink:href="#moderator-a"/>
    </mask>
    <g fill="#222" mask="url(#moderator-b)">
      <rect width="16" height="16"/>
    </g>
  </g>
</svg>
