<svg xmlns="http://www.w3.org/2000/svg" xmlns:xlink="http://www.w3.org/1999/xlink" width="16" height="16" viewBox="0 0 16 16">
  <defs>
    <path id="plusone-a" d="M11.2600909,10.8636364 L9.91577273,10.8636364 L9.91577273,7.18354545 L9.92881818,6.57868182 L9.95077273,5.9175 C9.72772727,6.14086364 9.57213636,6.28722727 9.48527273,6.35690909 L8.75440909,6.94427273 L8.10627273,6.13513636 L10.1550455,4.50381818 L11.2600909,4.50381818 L11.2600909,10.8636364 Z M7.11863636,8.02290909 L5.32663636,8.02290909 L5.32663636,9.876 L4.72177273,9.876 L4.72177273,8.02290909 L2.93836364,8.02290909 L2.93836364,7.42281818 L4.72177273,7.42281818 L4.72177273,5.56081818 L5.32663636,5.56081818 L5.32663636,7.42281818 L7.11863636,7.42281818 L7.11863636,8.02290909 Z M8,1 C4.13409091,1 1,4.13409091 1,8 C1,11.8659091 4.13409091,15 8,15 C11.8659091,15 15,11.8659091 15,8 C15,4.13409091 11.8659091,1 8,1 L8,1 Z"/>
  </defs>
  <g fill="none" fill-rule="evenodd">
    <mask id="plusone-b" fill="#fff">
      <use xlink:href="#plusone-a"/>
    </mask>
    <g fill="#222" mask="url(#plusone-b)">
      <rect width="16" height="16"/>
    </g>
  </g>
</svg>
