<svg xmlns="http://www.w3.org/2000/svg" xmlns:xlink="http://www.w3.org/1999/xlink" width="16" height="16" viewBox="0 0 16 16">
  <defs>
    <path id="search-a" d="M6,1 C8.76142375,1 11,3.23857625 11,6 C11,7.01997751 10.6945874,7.96862208 10.1702234,8.75947251 L10.2071068,8.79289322 L14.8033009,13.3890873 C15.1938252,13.7796116 15.1938252,14.4127766 14.8033009,14.8033009 C14.4127766,15.1938252 13.7796116,15.1938252 13.3890873,14.8033009 L13.3890873,14.8033009 L8.79289322,10.2071068 C8.78060632,10.1948199 8.76888439,10.1825188 8.75771623,10.1702046 C7.96862208,10.6945874 7.01997751,11 6,11 C3.23857625,11 1,8.76142375 1,6 C1,3.23857625 3.23857625,1 6,1 Z M6,2 C3.790861,2 2,3.790861 2,6 C2,8.209139 3.790861,10 6,10 C8.209139,10 10,8.209139 10,6 C10,3.790861 8.209139,2 6,2 Z"/>
  </defs>
  <g fill="none" fill-rule="evenodd">
    <mask id="search-b" fill="#fff">
      <use xlink:href="#search-a"/>
    </mask>
    <g fill="#222" mask="url(#search-b)">
      <rect width="16" height="16"/>
    </g>
  </g>
</svg>
