<svg xmlns="http://www.w3.org/2000/svg" xmlns:xlink="http://www.w3.org/1999/xlink" width="16" height="16" viewBox="0 0 16 16">
  <defs>
    <path id="settings-a" d="M7.99872727,11.4939545 C6.06545455,11.4939545 4.49904545,9.92722727 4.49904545,7.99395455 C4.49904545,6.061 6.06545455,4.49395455 7.99872727,4.49395455 C9.93231818,4.49395455 11.4987273,6.061 11.4987273,7.99395455 C11.4987273,9.92722727 9.93231818,11.4939545 7.99872727,11.4939545 M13.0158182,9.54445455 L15,9.04809091 L14.9993636,6.94809091 L13.0183636,6.45331818 C12.9206818,6.13609091 12.7924545,5.83159091 12.6400455,5.543 L13.6919545,3.79045455 L12.2060455,2.3055 L10.4563636,3.35613636 C10.1668182,3.20245455 9.86168182,3.07359091 9.54318182,2.97590909 L9.04872727,1 L6.94904545,1 L6.45459091,2.97590909 C6.13609091,3.07359091 5.83095455,3.20245455 5.54077273,3.35709091 L3.79236364,2.30645455 L2.30740909,3.79172727 L3.35836364,5.543 C3.20531818,5.83159091 3.07709091,6.13609091 2.97972727,6.45331818 L1,6.94809091 L1,9.04809091 L2.98227273,9.54445455 C3.08027273,9.86009091 3.20786364,10.1623636 3.36027273,10.4509545 L2.30740909,12.2044545 L3.79236364,13.6894091 L5.54904545,12.6355909 C5.83509091,12.7873636 6.13640909,12.9146364 6.45204545,13.0113636 L6.94904545,14.9993636 L9.04872727,14.9993636 L9.54572727,13.0113636 C9.86136364,12.9146364 10.1620455,12.7873636 10.4480909,12.6355909 L12.207,13.691 L13.6919545,12.2057273 L12.6375,10.4496818 C12.7905455,10.1623636 12.9178182,9.86009091 13.0158182,9.54445455"/>
  </defs>
  <g fill="none" fill-rule="evenodd">
    <mask id="settings-b" fill="#fff">
      <use xlink:href="#settings-a"/>
    </mask>
    <g fill="#222" mask="url(#settings-b)">
      <rect width="16" height="16"/>
    </g>
  </g>
</svg>
