<svg xmlns="http://www.w3.org/2000/svg" xmlns:xlink="http://www.w3.org/1999/xlink" width="16" height="16" viewBox="0 0 16 16">
  <defs>
    <path id="unwatch-a" d="M11.3943333,1 L13.0326667,2.14733333 L4.38033333,14.504 L2.742,13.357 L4.30933333,11.1183333 C1.80033333,9.71666667 3.10862447e-14,7.449 3.10862447e-14,7.449 C3.10862447e-14,7.449 3.76766667,2.69766667 8,2.69766667 C8.67566667,2.69766667 9.33866667,2.82066667 9.97666667,3.02433333 L9.97666667,3.02433333 L11.3943333,1 Z M13.0724333,4.67606667 C14.8344333,5.9804 16.0001,7.44906667 16.0001,7.44906667 C16.0001,7.44906667 12.2321,12.2004 8.0001,12.2004 C7.93576667,12.2004 7.87243333,12.1957333 7.80843333,12.1937333 L7.80843333,12.1937333 L8.3421,11.4317333 C10.3907667,11.2580667 12.0001,9.54273333 12.0001,7.44906667 C12.0001,7.08873333 11.9481,6.7414 11.8587667,6.4094 L11.8587667,6.4094 Z M10.9897667,7.65033333 C10.9141,8.78933333 10.2051,9.75366667 9.20943333,10.193 L9.20943333,10.193 Z M8,3.449 C5.791,3.449 4,5.24 4,7.449 C4,8.471 4.38533333,9.40166667 5.01666667,10.1083333 L5.01666667,10.1083333 L5.61033333,9.26066667 C5.22766667,8.75733333 5,8.13 5,7.449 C5,7.089 5.07366667,6.74866667 5.19,6.429 C5.418,6.817 5.83533333,7.08 6.31766667,7.08 C7.043,7.08 7.631,6.492 7.631,5.76666667 C7.631,5.28433333 7.36766667,4.867 6.98,4.63866667 C7.29966667,4.52266667 7.64,4.449 8,4.449 C8.308,4.449 8.60333333,4.50033333 8.88266667,4.587 L8.88266667,4.587 L9.477,3.73833333 C9.01966667,3.55466667 8.523,3.449 8,3.449 Z"/>
  </defs>
  <g fill="none" fill-rule="evenodd">
    <mask id="unwatch-b" fill="#fff">
      <use xlink:href="#unwatch-a"/>
    </mask>
    <g fill="#222" mask="url(#unwatch-b)">
      <rect width="16" height="16"/>
    </g>
  </g>
</svg>
