<svg xmlns="http://www.w3.org/2000/svg" xmlns:xlink="http://www.w3.org/1999/xlink" width="16" height="16" viewBox="0 0 16 16">
  <defs>
    <path id="warning-a" d="M7.99877751,12.7482891 C7.55898724,12.7482891 7.2548932,12.4252465 7.26528435,11.9851506 C7.26528435,11.5349692 7.56846152,11.2220121 7.99877751,11.2220121 C8.44895894,11.2220121 8.73227067,11.5349692 8.74266182,11.9851506 C8.74266182,12.4252465 8.44895894,12.7482891 7.99877751,12.7482891 L7.99877751,12.7482891 Z M8.63447158,6.26573771 L8.45843322,10.5444478 L7.5391218,10.5444478 L7.36308344,6.26573771 L8.63447158,6.26573771 Z M14.9379284,13.5450461 L8.39700317,2.22663538 C8.22065919,1.92101323 7.77934081,1.92620881 7.60299683,2.23183096 L1.06207158,13.5426011 C0.8857276,13.8482232 1.10608117,14.2119136 1.45907475,14.2119136 L14.5409252,14.2119136 C14.8939188,14.2119136 15.1142724,13.8506682 14.9379284,13.5450461 L14.9379284,13.5450461 Z"/>
  </defs>
  <g fill="none" fill-rule="evenodd">
    <mask id="warning-b" fill="#fff">
      <use xlink:href="#warning-a"/>
    </mask>
    <g fill="#222" mask="url(#warning-b)">
      <rect width="16" height="16"/>
    </g>
  </g>
</svg>
