<svg xmlns="http://www.w3.org/2000/svg" xmlns:xlink="http://www.w3.org/1999/xlink" width="16" height="16" viewBox="0 0 16 16">
  <defs>
    <path id="watch-a" d="M8,3 C12.2323333,3 16,7.75133333 16,7.75133333 C16,7.75133333 12.2323333,12.5026667 8,12.5026667 C3.76766667,12.5026667 0,7.75133333 0,7.75133333 C0,7.75133333 3.76766667,3 8,3 Z M8,3.75133333 C5.791,3.75133333 4,5.54233333 4,7.75133333 C4,9.96066667 5.791,11.7513333 8,11.7513333 C10.209,11.7513333 12,9.96066667 12,7.75133333 C12,5.54233333 10.209,3.75133333 8,3.75133333 Z M8,4.75133333 C9.657,4.75133333 11,6.09433333 11,7.75133333 C11,9.40833333 9.657,10.7513333 8,10.7513333 C6.343,10.7513333 5,9.40833333 5,7.75133333 C5,7.39166667 5.07366667,7.051 5.18966667,6.73133333 C5.418,7.11933333 5.83533333,7.38233333 6.31766667,7.38233333 C7.043,7.38233333 7.631,6.79433333 7.631,6.069 C7.631,5.58666667 7.36766667,5.16966667 6.98,4.941 C7.29966667,4.82533333 7.64,4.75133333 8,4.75133333 Z"/>
  </defs>
  <g fill="none" fill-rule="evenodd">
    <mask id="watch-b" fill="#fff">
      <use xlink:href="#watch-a"/>
    </mask>
    <g fill="#222" mask="url(#watch-b)">
      <rect width="16" height="16"/>
    </g>
  </g>
</svg>
