<svg xmlns="http://www.w3.org/2000/svg" xmlns:xlink="http://www.w3.org/1999/xlink" width="16" height="16" viewBox="0 0 16 16">
  <defs>
    <path id="add-a" d="M8,1 C11.8659091,1 15,4.13409091 15,8 C15,11.8659091 11.8659091,15 8,15 C4.13409091,15 1,11.8659091 1,8 C1,4.13409091 4.13409091,1 8,1 Z M8,1.63636364 C4.49109091,1.63636364 1.63636364,4.49109091 1.63636364,8 C1.63636364,11.5089091 4.49109091,14.3636364 8,14.3636364 C11.5089091,14.3636364 14.3636364,11.5089091 14.3636364,8 C14.3636364,4.49109091 11.5089091,1.63636364 8,1.63636364 Z M8.54552273,4.18175455 L8.54552273,7.45425455 L11.8183409,7.45425455 L11.8183409,8.54561818 L8.54552273,8.54561818 L8.54552273,11.8181182 L7.45447727,11.8181182 L7.45447727,8.54561818 L4.18165909,8.54561818 L4.18165909,7.45425455 L7.45447727,7.45425455 L7.45447727,4.18175455 L8.54552273,4.18175455 Z"/>
  </defs>
  <g fill="none" fill-rule="evenodd">
    <mask id="add-b" fill="#fff">
      <use xlink:href="#add-a"/>
    </mask>
    <g fill="#222" mask="url(#add-b)">
      <rect width="16" height="16"/>
    </g>
  </g>
</svg>
