<svg xmlns="http://www.w3.org/2000/svg" xmlns:xlink="http://www.w3.org/1999/xlink" width="16" height="16" viewBox="0 0 16 16">
  <defs>
    <path id="admin-a" d="M12.9174045,11.6578364 C13.2098136,11.5146545 13.5636318,11.6352455 13.7080864,11.9276545 C13.8531773,12.2210182 13.7329045,12.5764273 13.4398591,12.7212 C13.3695409,12.7558818 11.6838136,13.5682 7.99990455,13.5682 C4.31631364,13.5682 2.63026818,12.7558818 2.56026818,12.7212 C2.26690455,12.5764273 2.14663182,12.2210182 2.29140455,11.9276545 C2.43617727,11.6352455 2.78999545,11.5146545 3.08272273,11.6578364 C3.11263182,11.6718364 4.64881364,12.3832909 7.99990455,12.3832909 C11.3509955,12.3832909 12.8874955,11.6718364 12.9174045,11.6578364 Z M8,2 C8.52977273,2 8.959,2.42922727 8.959,2.959 C8.959,3.31345455 8.76681818,3.62209091 8.48077273,3.78818182 L8.48077273,3.78818182 L10.6135455,7.46318182 L13.3184091,5.10322727 C13.1717273,4.93459091 13.0813636,4.71472727 13.0813636,4.47354545 C13.0813636,3.94377273 13.5109091,3.51422727 14.0406818,3.51422727 C14.5704545,3.51422727 15,3.94377273 15,4.47354545 C15,5.00331818 14.5704545,5.43254545 14.0406818,5.43254545 C13.999,5.43254545 13.9582727,5.42904545 13.9178636,5.42395455 L13.9178636,5.42395455 L13.1990909,10.9940455 C13.1990909,10.9940455 11.6699091,11.7449545 8,11.7449545 C4.32977273,11.7449545 2.80090909,10.9940455 2.80090909,10.9940455 L2.80090909,10.9940455 L2.08181818,5.42395455 C2.04172727,5.42904545 2.00068182,5.43254545 1.959,5.43254545 C1.42922727,5.43254545 1,5.00331818 1,4.47354545 C1,3.94377273 1.42922727,3.51422727 1.959,3.51422727 C2.48877273,3.51422727 2.91831818,3.94377273 2.91831818,4.47354545 C2.91831818,4.71472727 2.82859091,4.93459091 2.68127273,5.10354545 L2.68127273,5.10354545 L5.38645455,7.46318182 L7.51890909,3.78818182 C7.23318182,3.62209091 7.04068182,3.31345455 7.04068182,2.959 C7.04068182,2.42922727 7.47022727,2 8,2 Z"/>
  </defs>
  <g fill="none" fill-rule="evenodd">
    <mask id="admin-b" fill="#fff">
      <use xlink:href="#admin-a"/>
    </mask>
    <g fill="#222" mask="url(#admin-b)">
      <rect width="16" height="16"/>
    </g>
  </g>
</svg>
