<svg xmlns="http://www.w3.org/2000/svg" xmlns:xlink="http://www.w3.org/1999/xlink" width="16" height="16" viewBox="0 0 16 16">
  <defs>
    <path id="admincircle-a" d="M12.8903333,6.09633333 C12.8563333,6.09633333 12.8236667,6.09366667 12.791,6.08933333 L12.209,10.5986667 C12.209,10.5986667 10.971,11.2063333 8,11.2063333 C5.029,11.2063333 3.79133333,10.5986667 3.79133333,10.5986667 L3.20933333,6.08933333 C3.17666667,6.09366667 3.14366667,6.09633333 3.10966667,6.09633333 C2.681,6.09633333 2.33333333,5.749 2.33333333,5.32 C2.33333333,4.891 2.681,4.54333333 3.10966667,4.54333333 C3.53866667,4.54333333 3.88633333,4.891 3.88633333,5.32 C3.88633333,5.51533333 3.81366667,5.69333333 3.69433333,5.83 L5.88433333,7.74033333 L7.61066667,4.765 C7.37966667,4.63066667 7.22366667,4.381 7.22366667,4.094 C7.22366667,3.66533333 7.57133333,3.31766667 8,3.31766667 C8.42866667,3.31766667 8.77633333,3.66533333 8.77633333,4.094 C8.77633333,4.381 8.62066667,4.63066667 8.38933333,4.765 L10.1156667,7.74033333 L12.3056667,5.83 C12.1866667,5.69333333 12.1136667,5.51533333 12.1136667,5.32 C12.1136667,4.891 12.4613333,4.54333333 12.8903333,4.54333333 C13.319,4.54333333 13.6666667,4.891 13.6666667,5.32 C13.6666667,5.749 13.319,6.09633333 12.8903333,6.09633333 M12.4036667,11.9966667 C12.347,12.0246667 10.982,12.6823333 8,12.6823333 C5.018,12.6823333 3.65333333,12.0246667 3.59633333,11.9966667 C3.359,11.8796667 3.26166667,11.5916667 3.379,11.354 C3.496,11.1173333 3.78266667,11.02 4.01933333,11.1356667 C4.04366667,11.147 5.287,11.7233333 8,11.7233333 C10.713,11.7233333 11.9566667,11.147 11.9806667,11.1356667 C12.2176667,11.02 12.504,11.1173333 12.621,11.354 C12.7386667,11.5916667 12.641,11.8796667 12.4036667,11.9966667 M8,0 C3.58166667,0 0,3.58166667 0,8 C0,12.4183333 3.58166667,16 8,16 C12.4183333,16 16,12.4183333 16,8 C16,3.58166667 12.4183333,0 8,0"/>
  </defs>
  <g fill="none" fill-rule="evenodd">
    <mask id="admincircle-b" fill="#fff">
      <use xlink:href="#admincircle-a"/>
    </mask>
    <g fill="#222" mask="url(#admincircle-b)">
      <rect width="16" height="16"/>
    </g>
  </g>
</svg>
