<svg xmlns="http://www.w3.org/2000/svg" xmlns:xlink="http://www.w3.org/1999/xlink" width="16" height="16" viewBox="0 0 16 16">
  <defs>
    <path id="backcircle-a" d="M12.6136364,10.9040455 C12.6136364,9.21513636 11.3663636,7.84122727 9.834,7.84122727 L4.89740909,7.84122727 L7.40277273,10.3472273 L6.72790909,11.0220909 L3.21168182,7.50522727 L6.72790909,3.989 L7.40277273,4.66386364 L5.18027273,6.88668182 L9.834,6.88668182 C11.8926364,6.88668182 13.5681818,8.68886364 13.5681818,10.9040455 L13.5681818,12.2295909 C14.4629091,11.0539091 15,9.59122727 15,8 C15,4.13377273 11.8659091,1 8,1 C4.13409091,1 1,4.13377273 1,8 C1,11.8659091 4.13409091,15 8,15 C9.76972727,15 11.381,14.3378636 12.6136364,13.2550909 L12.6136364,10.9040455 Z"/>
  </defs>
  <g fill="none" fill-rule="evenodd">
    <mask id="backcircle-b" fill="#fff">
      <use xlink:href="#backcircle-a"/>
    </mask>
    <g fill="#222" mask="url(#backcircle-b)">
      <rect width="16" height="16"/>
    </g>
  </g>
</svg>
