<svg xmlns="http://www.w3.org/2000/svg" xmlns:xlink="http://www.w3.org/1999/xlink" width="16" height="16" viewBox="0 0 16 16">
  <defs>
    <path id="delete-a" d="M8.32517464,7.12431846 L8.32517464,12.2540083 C8.32517464,12.4485788 8.16746111,12.6062924 7.97317632,12.6062924 C7.77860582,12.6062924 7.62089228,12.4485788 7.62089228,12.2540083 L7.62089228,7.12431846 C7.62089228,6.92974795 7.77860582,6.77232013 7.97317632,6.77232013 C8.16746111,6.77232013 8.32517464,6.92974795 8.32517464,7.12431846 L8.32517464,7.12431846 Z M9.98030962,7.10346141 C9.99745239,6.90974805 10.168023,6.76660587 10.3617364,6.78346294 C10.5554497,6.80032 10.6988776,6.97117633 10.6817348,7.16488969 L10.2348798,12.2748654 C10.2177371,12.4688644 10.0468807,12.6120066 9.85345308,12.5948638 C9.65973972,12.5780068 9.51631183,12.4074362 9.5334546,12.2134371 L9.98030962,7.10346141 Z M6.09289956,12.5948638 C5.89918619,12.6120066 5.72832987,12.4688644 5.71175852,12.2748654 L5.26433207,7.16488969 C5.24747501,6.97117633 5.39061719,6.80032 5.58433055,6.78346294 C5.77804391,6.76660587 5.94890024,6.90974805 5.96575731,7.10346141 L6.41289803,12.2134371 C6.4297551,12.4074362 6.28661292,12.5780068 6.09289956,12.5948638 L6.09289956,12.5948638 Z M12.6217256,5.37832677 L11.3785887,14 L4.56776396,14 L3.32434131,5.37832677 L12.6217256,5.37832677 Z M9.25120368,2.00099495 C9.41215601,2.01094446 10.2973938,2.12038904 10.2973938,3.32427941 L10.2973938,3.32427941 L12.3843193,3.32442601 C12.5091267,3.32880417 12.9459526,3.38044241 12.9459526,3.88884815 L12.9459526,3.88884815 L12.9459526,4.81084376 L3,4.81084376 L3,3.88884815 C3,3.38044241 3.43703582,3.32880417 3.5619032,3.32442601 L5.64884453,3.32427941 C5.64884453,2.12038904 6.53384622,2.01094446 6.69475562,2.00099495 Z M9.02911415,2.69513955 L6.91683849,2.69513955 C6.66683968,2.69513955 6.46426922,2.89771001 6.46426922,3.14770882 L6.46426922,3.14770882 L6.46426922,3.29856524 L9.48196913,3.29856524 L9.48196913,3.14770882 C9.48196913,2.89771001 9.27911296,2.69513955 9.02911415,2.69513955 L9.02911415,2.69513955 Z"/>
  </defs>
  <g fill="none" fill-rule="evenodd">
    <mask id="delete-b" fill="#fff">
      <use xlink:href="#delete-a"/>
    </mask>
    <g fill="#222" mask="url(#delete-b)">
      <rect width="16" height="16"/>
    </g>
  </g>
</svg>
