<svg xmlns="http://www.w3.org/2000/svg" xmlns:xlink="http://www.w3.org/1999/xlink" width="16" height="16" viewBox="0 0 16 16">
  <defs>
    <path id="drag3-a" d="M5.66508862,11.3991334 L5.73422618,11.4571207 L8,13.732 L10.2764466,11.4564466 C10.450013,11.2828803 10.7194374,11.2635951 10.9143055,11.3985912 L10.9835534,11.4564466 C11.1571197,11.630013 11.1764049,11.8994374 11.0414088,12.0943055 L10.9835534,12.1635534 L8.35355339,14.7935534 C8.17975322,14.9673536 7.90989238,14.9864261 7.71500721,14.8509338 L7.64577382,14.7928793 L5.02577382,12.1628793 C4.83088395,11.9672456 4.83148697,11.6506637 5.02712068,11.4557738 C5.20101732,11.2825384 5.47047797,11.2637665 5.66508862,11.3991334 Z M13.25,7.47 C13.6642136,7.47 14,7.80578644 14,8.22 C14,8.63421356 13.6642136,8.97 13.25,8.97 L2.75,8.97 C2.33578644,8.97 2,8.63421356 2,8.22 C2,7.80578644 2.33578644,7.47 2.75,7.47 L13.25,7.47 Z M8.28420954,1.58852409 L8.35355339,1.64644661 L10.9835534,4.27644661 C11.1788155,4.47170876 11.1788155,4.78829124 10.9835534,4.98355339 C10.809987,5.15711974 10.5405626,5.17640489 10.3456945,5.04140884 L10.2764466,4.98355339 L8,2.707 L5.73422618,4.98287932 C5.56099075,5.15677595 5.29160357,5.17657426 5.09647865,5.04194963 L5.02712068,4.98422618 C4.85322405,4.81099075 4.83342574,4.54160357 4.96805037,4.34647865 L5.02577382,4.27712068 L7.64577382,1.64712068 C7.81924262,1.47298978 8.08906664,1.45340329 8.28420954,1.58852409 Z"/>
  </defs>
  <use fill="#231F20" xlink:href="#drag3-a"/>
</svg>
