<svg xmlns="http://www.w3.org/2000/svg" xmlns:xlink="http://www.w3.org/1999/xlink" width="16" height="16" viewBox="0 0 16 16">
  <defs>
    <path id="expand-a" d="M7.24449444,8.75550556 C7.4929888,9.00399991 7.4929888,9.40680894 7.24449444,9.65530329 L3.172,13.727 L6.09079339,13.7273017 C6.44205814,13.7273017 6.72714256,14.0123861 6.72714256,14.3636508 C6.72714256,14.7149156 6.44205814,15 6.09079339,15 L1.63634917,15 L1.63634917,15 C1.57248286,15 1.51080432,14.9905757 1.45262929,14.9730429 C1.43424733,14.9672821 1.42510929,14.9641516 1.41603218,14.9608068 C1.39704327,14.9537547 1.3787722,14.9459892 1.3609607,14.9374186 C1.3508064,14.9326268 1.3403393,14.9272451 1.32999615,14.9215534 C1.31023866,14.9105627 1.29140751,14.8988485 1.27326439,14.886214 C1.2655876,14.8809488 1.25814666,14.8755158 1.25079905,14.8699007 C1.23277566,14.8560887 1.21535157,14.841258 1.19877192,14.8255451 C1.19468043,14.8216709 1.19054469,14.8176441 1.18645031,14.8135497 L1.17445494,14.8012281 C1.15874197,14.7846484 1.14391131,14.7672243 1.1300384,14.7490313 L1.18645031,14.8135497 C1.1592893,14.7863887 1.13509705,14.7573841 1.11387356,14.7269389 C1.10115152,14.7085925 1.08943734,14.6897613 1.07871133,14.67031 C1.07285012,14.6597099 1.06746997,14.6492398 1.06239925,14.6386586 C1.05401079,14.6212278 1.04624532,14.6029567 1.03933226,14.5842734 C1.03594711,14.5749094 1.03281597,14.5657677 1.02989887,14.5565728 C1.00942428,14.4891957 1,14.4275171 1,14.3636508 L1,9.90920661 C1,9.55794186 1.28508443,9.27285744 1.63634917,9.27285744 C1.98761392,9.27285744 2.27269835,9.55794186 2.27269835,9.90920661 L2.272,12.827 L6.34469671,8.75550556 C6.59319106,8.5070112 6.99600009,8.5070112 7.24449444,8.75550556 Z M14.5566046,1.02986705 L14.5842734,1.03933226 C14.6029567,1.04624532 14.6212278,1.05401079 14.6390393,1.06258137 C14.6492716,1.06743815 14.6597417,1.07281831 14.6700871,1.0785079 C14.6897613,1.08943734 14.7085925,1.10115152 14.7267356,1.11378604 C14.734498,1.11908903 14.7419371,1.12451778 14.7492822,1.13012801 C14.7672243,1.14391131 14.7846484,1.15874197 14.8012281,1.17445494 C14.8053614,1.17830749 14.8094924,1.18232934 14.8135815,1.18641849 L14.8255451,1.19877192 C14.841258,1.21535157 14.8560887,1.23277566 14.8699616,1.25096874 L14.8135815,1.18641849 C14.8407425,1.2135795 14.8649348,1.24258411 14.8861583,1.27302929 C14.8988485,1.29140751 14.9105627,1.31023866 14.9212887,1.32969005 C14.9271817,1.34025827 14.9325618,1.35072836 14.9376326,1.36130957 C14.9459892,1.3787722 14.9537547,1.39704327 14.9606677,1.41572662 C14.9640847,1.42505881 14.9672158,1.43420051 14.970133,1.44339538 C14.9905757,1.51080432 15,1.57248286 15,1.63634917 L15,6.09079339 C15,6.44205814 14.7149156,6.72714256 14.3636508,6.72714256 C14.0123861,6.72714256 13.7273017,6.44205814 13.7273017,6.09079339 L13.727,3.172 L9.65533511,7.24446263 C9.53092884,7.36886889 9.36834163,7.43091293 9.20543624,7.43091293 C9.04253085,7.43091293 8.87994364,7.36886889 8.75553737,7.24446263 C8.50704302,6.99596827 8.50704302,6.59315925 8.75553737,6.34466489 L12.827,2.272 L9.90920661,2.27269835 C9.55794186,2.27269835 9.27285744,1.98761392 9.27285744,1.63634917 C9.27285744,1.28508443 9.55794186,1 9.90920661,1 L14.3636508,1 C14.4275171,1 14.4891957,1.00942428 14.5473707,1.02695711 L14.5566046,1.02986705 Z"/>
  </defs>
  <g fill="none" fill-rule="evenodd">
    <mask id="expand-b" fill="#fff">
      <use xlink:href="#expand-a"/>
    </mask>
    <g fill="#222" mask="url(#expand-b)">
      <rect width="16" height="16"/>
    </g>
  </g>
</svg>
