<svg xmlns="http://www.w3.org/2000/svg" xmlns:xlink="http://www.w3.org/1999/xlink" width="16" height="16" viewBox="0 0 16 16">
  <defs>
    <path id="tall-a" d="M14.4821875,1 L14.4821875,15 L1.65,15 L1.65,1 L14.4821875,1 Z M13.3162083,2.16689583 L2.81689583,2.16689583 L2.81689583,11.5011458 L13.3162083,11.5011458 L13.3162083,2.16689583 Z M11.4918909,5.18377529 L13.0245302,6.71549794 L13.0245302,10.9165063 L11.2379788,10.9165063 L8.49811105,8.17755516 L11.4918909,5.18377529 Z M6.76032541,7.26420481 L10.4122602,10.9161396 L3.10839062,10.9161396 L6.76032541,7.26420481 Z M4.65487134,3.05952989 C5.2992765,3.05952989 5.82085052,3.58110391 5.82085052,4.22642572 C5.82085052,4.86991423 5.2992765,5.3924049 4.65487134,5.3924049 C4.01046618,5.3924049 3.48889216,4.86991423 3.48889216,4.22642572 C3.48889216,3.58110391 4.01046618,3.05952989 4.65487134,3.05952989 Z"/>
  </defs>
  <g fill="none" fill-rule="evenodd">
    <mask id="tall-b" fill="#fff">
      <use xlink:href="#tall-a"/>
    </mask>
    <g fill="#222" mask="url(#tall-b)">
      <rect width="16" height="16"/>
    </g>
  </g>
</svg>
