<svg xmlns="http://www.w3.org/2000/svg" xmlns:xlink="http://www.w3.org/1999/xlink" width="16" height="16" viewBox="0 0 16 16">
  <defs>
    <path id="link-a" d="M9.23953809,5.7305097 C9.43776491,5.86223668 9.62803721,6.01750905 9.80590044,6.19537228 C11.2278518,7.6173236 11.2288063,9.92954561 9.80590044,11.3514969 L9.80590044,11.3514969 L7.2248154,13.9335365 C5.80190954,15.3554878 3.48968752,15.3554878 2.06646349,13.9335365 C0.644512172,12.5115852 0.644512172,10.1961814 2.06646349,8.77327552 L2.06646349,8.77327552 L3.67709619,7.1661428 C3.66691439,7.76273236 3.77636869,8.35741282 3.97873187,8.92695698 L3.97873187,8.92695698 L3.10087023,9.80481863 C2.24528126,10.6591349 2.24528126,12.0476772 3.10087023,12.901357 C3.95327738,13.7550369 5.3430924,13.7550369 6.19454501,12.901357 L6.19454501,12.901357 L8.77563006,10.320272 C9.62708267,9.46881939 9.62708267,8.08027709 8.77563006,7.22659721 C8.59967591,7.05064307 8.39763091,6.92082518 8.18763139,6.81837087 C8.20926771,6.78337095 8.22772221,6.74232559 8.25890396,6.70987111 L8.25890396,6.70987111 Z M8.77563006,2.06646349 C10.1985359,0.644512172 12.5107579,0.644512172 13.9327092,2.06646349 C15.3556151,3.48936934 15.3556151,5.80381863 13.9327092,7.22672448 L13.9327092,7.22672448 L12.3233493,8.83417538 C12.3332129,8.23663128 12.2237586,7.64258718 12.0217136,7.07208847 L12.0217136,7.07208847 L12.8986207,6.19549956 C13.754846,5.34086513 13.754846,3.95232284 12.8986207,3.0995975 C12.0468499,2.24528126 10.6573531,2.24528126 9.80590044,3.0995975 L9.80590044,3.0995975 L7.2248154,5.67781891 C6.37304461,6.53118061 6.37304461,7.91972291 7.2248154,8.77340279 C7.40076954,8.94935693 7.60249636,9.08012936 7.81185952,9.18162913 C7.79117775,9.21694723 7.77526869,9.2579926 7.7415415,9.29108343 L7.7415415,9.29108343 L6.76504372,10.2694903 C6.56268054,10.1355361 6.37209006,9.98249095 6.19454501,9.80462772 C4.7725937,8.38299458 4.77163916,6.07045439 6.19454501,4.64850307 L6.19454501,4.64850307 Z"/>
  </defs>
  <g fill="none" fill-rule="evenodd">
    <mask id="link-b" fill="#fff">
      <use xlink:href="#link-a"/>
    </mask>
    <g fill="#222" mask="url(#link-b)">
      <rect width="16" height="16"/>
    </g>
  </g>
</svg>
