<svg xmlns="http://www.w3.org/2000/svg" width="16" height="16" viewBox="0 0 16 16">
  <path fill="#222" fill-rule="evenodd" d="M8.1388195,2 C10.2637214,2 11.9929341,3.72892727 11.9929341,5.85411462 L11.9929341,5.85411462 L11.9929341,7.14824067 L12.7055171,7.14824067 C13.0215545,7.14824067 13.277639,7.40461066 13.277639,7.72064806 L13.277639,7.72064806 L13.277639,13.4275926 C13.277639,13.7439155 13.0215545,14 12.7055171,14 L12.7055171,14 L3.57240739,14 C3.25608451,14 3,13.7439155 3,13.4275926 L3,13.4275926 L3,7.72064806 C3,7.40461066 3.25608451,7.14824067 3.57240739,7.14824067 L3.57240739,7.14824067 L4.28470487,7.14824067 L4.28470487,5.85411462 C4.28470487,3.72892727 6.01391764,2 8.1388195,2 Z M8.1388195,3.42744986 C6.800728,3.42744986 5.71215474,4.51602312 5.71215474,5.85411462 L5.71215474,5.85411462 L5.71215474,7.14824067 L10.5654843,7.14824067 L10.5654843,5.85411462 C10.5654843,4.51602312 9.47719649,3.42744986 8.1388195,3.42744986 Z"/>
</svg>
