<svg xmlns="http://www.w3.org/2000/svg" xmlns:xlink="http://www.w3.org/1999/xlink" width="16" height="16" viewBox="0 0 16 16">
  <defs>
    <path id="mentions-a" d="M7.22730084,8.33074605 C7.18018186,8.8958086 7.22949242,9.32499315 7.37486727,9.61793444 C7.52060739,9.91124098 7.75583705,10.0580769 8.08128678,10.0580769 C8.290948,10.0580769 8.49001657,9.9660305 8.67849251,9.78193772 C8.86660319,9.59784495 9.02293594,9.33229842 9.14712551,8.98566341 L9.41668994,5.94886312 C9.24976454,5.89297781 9.07845599,5.86521779 8.90312953,5.86521779 C8.41075441,5.86521779 8.02868884,6.07487901 7.75693284,6.49456671 C7.48517683,6.91388914 7.30875459,7.52607068 7.22730084,8.33074605 M13.6800449,7.65026025 C13.6329259,8.74605059 13.3622657,9.61610812 12.867699,10.2600676 C12.3734975,10.9043923 11.7090833,11.2265547 10.8740911,11.2265547 C10.5062708,11.2265547 10.1881263,11.1472925 9.92075349,10.9887681 C9.65338065,10.8306091 9.4510247,10.6037805 9.31405091,10.3082823 C8.88596215,10.9076797 8.32747434,11.2071957 7.63822222,11.2071957 C7.01325646,11.2071957 6.52964766,10.9438407 6.18703055,10.4174961 C5.8447787,9.89078623 5.71620596,9.19532463 5.80204287,8.33074605 C5.87911346,7.62432655 6.05772729,6.99643868 6.33788435,6.44635193 C6.61840668,5.89626518 6.97271222,5.47365537 7.40080098,5.17815725 C7.82852447,4.88302438 8.290948,4.73509269 8.78734102,4.73509269 C9.39952256,4.73509269 9.92184928,4.87644964 10.3543212,5.15879828 L10.7586678,5.43493745 L10.4310265,9.14601406 C10.3882907,9.48424801 10.4259128,9.7432198 10.5435277,9.92292941 C10.6611425,10.1030043 10.8485226,10.1928591 11.1053028,10.1928591 C11.4990568,10.1928591 11.8288897,9.96274313 12.094071,9.50251119 C12.3596175,9.04227924 12.5049924,8.43995982 12.5309261,7.69518765 C12.6036135,6.20126016 12.3030017,5.05287188 11.6287254,4.25038809 C10.954449,3.4479043 9.95618405,3.04647977 8.63356511,3.04647977 C7.80733919,3.04647977 7.07096809,3.25614099 6.42481705,3.67582869 C5.77830075,4.09515113 5.26912351,4.69126107 4.89655479,5.46379326 C4.52435134,6.23669071 4.31432486,7.12135878 4.26720587,8.11889325 C4.19890161,9.63400603 4.50280079,10.8057712 5.1792687,11.6341887 C5.85537134,12.4626062 6.86788161,12.8764496 8.21606899,12.8764496 C8.57147032,12.8764496 8.94367377,12.8370012 9.33340987,12.757739 C9.72278071,12.6784769 10.0588231,12.5725505 10.3411717,12.4399598 L10.5851677,13.428728 C10.3243696,13.6000365 9.97225564,13.7381061 9.52919108,13.8429367 C9.08612652,13.9477673 8.63977459,14 8.19050055,14 C7.06037545,14 6.09717574,13.7720756 5.30126669,13.3162268 C4.50499238,12.860378 3.91107401,12.1886586 3.5195116,11.3003379 C3.12758392,10.4120172 2.95773642,9.35165738 3.0088733,8.11889325 C3.06037545,6.93763127 3.32993987,5.87800201 3.81793183,4.94073601 C4.3059238,4.00310474 4.97033801,3.27878733 5.81153972,2.7674185 C6.65274144,2.25568441 7.60169587,2 8.65913355,2 C9.73337335,2 10.6582204,2.23011597 11.4329442,2.69034791 C12.2076679,3.15021459 12.7877063,3.80841932 13.172694,4.66459684 C13.5580469,5.52077436 13.7271639,6.51575199 13.6800449,7.65026025"/>
  </defs>
  <g fill="none" fill-rule="evenodd">
    <mask id="mentions-b" fill="#fff">
      <use xlink:href="#mentions-a"/>
    </mask>
    <g fill="#222" mask="url(#mentions-b)">
      <rect width="16" height="16"/>
    </g>
  </g>
</svg>
