<svg xmlns="http://www.w3.org/2000/svg" width="16" height="16" viewBox="0 0 16 16">
  <path fill-rule="evenodd" d="M3.0588591,5.71036846 C3.5197723,5.24984853 4.26659326,5.24984853 4.72750646,5.71036846 L4.72750646,5.71036846 L10.28914,11.272002 C10.7496599,11.7329152 10.7496599,12.4797361 10.28914,12.9406493 C9.82862003,13.4015625 9.0814058,13.4015625 8.6204926,12.9406493 L8.6204926,12.9406493 L6.39576054,10.7159173 L1.94668971,15.1653814 L1.3500312e-13,15.9995084 L0.834520314,14.0528187 L5.28359115,9.6033546 L3.0588591,7.37901582 C2.59833917,6.91810262 2.59833917,6.17128166 3.0588591,5.71036846 Z M10.5668677,2.09526736 L13.9041624,5.4321688 L9.45469829,9.88163291 L6.11779685,6.54473146 L10.5668677,2.09526736 Z M10.7062821,0.287874114 C11.0901143,-0.095958038 11.7126617,-0.095958038 12.0968871,0.287874114 L12.0968871,0.287874114 L15.7118309,3.90281791 C16.0960564,4.28704333 16.0960564,4.90919749 15.7118309,5.29342292 C15.3276055,5.67725507 14.7050581,5.67725507 14.3212259,5.29342292 L14.3212259,5.29342292 L10.7062821,1.67808585 C10.32245,1.2942537 10.32245,0.671706266 10.7062821,0.287874114 Z"/>
</svg>
