<svg xmlns="http://www.w3.org/2000/svg" width="16" height="16" viewBox="0 0 16 16">
  <path fill="#231F20" fill-rule="evenodd" d="M11.9090909,13.8181818 L14.0909091,13.8181818 L14.0909091,3.63636364 L11.9090909,3.63636364 L11.9090909,13.8181818 Z M8.63636364,13.8181818 L10.8181818,13.8181818 L10.8181818,9.09090909 L8.63636364,9.09090909 L8.63636364,13.8181818 Z M5.36363636,13.8181818 L7.54545455,13.8181818 L7.54545455,7.27272727 L5.36363636,7.27272727 L5.36363636,13.8181818 Z M2.09090909,13.8181818 L4.27272727,13.8181818 L4.27272727,10.9090909 L2.09090909,10.9090909 L2.09090909,13.8181818 Z M14.5454545,0 L1.45454545,0 C0.651272727,0 0,0.651272727 0,1.45454545 L0,14.5454545 C0,15.3487273 0.651272727,16 1.45454545,16 L14.5454545,16 C15.3487273,16 16,15.3487273 16,14.5454545 L16,1.45454545 C16,0.651272727 15.3487273,0 14.5454545,0 L14.5454545,0 Z"/>
</svg>
