<svg xmlns="http://www.w3.org/2000/svg" xmlns:xlink="http://www.w3.org/1999/xlink" width="16" height="16" viewBox="0 0 16 16">
  <defs>
    <path id="quote-a" d="M10.5056818,7.125 C10.4255,7.44986364 10.3427727,7.73495455 10.1773182,7.98027273 C10.0115455,8.22590909 9.80090909,8.42222727 9.54922727,8.56922727 C9.29786364,8.71622727 9.27272727,8.79004545 8.63636364,8.79004545 L8.63636364,7.86986364 C8.63636364,7.86986364 9.03854545,7.818 9.17377273,7.71363636 C9.30868182,7.60959091 9.43022727,7.4715 9.51613636,7.29968182 C9.60172727,7.12786364 9.66536364,6.93759091 9.69622727,6.72281818 C9.72709091,6.50836364 9.74809091,6.09090909 9.74809091,6.09090909 L8.63636364,6.09090909 L8.63636364,4.18181818 L10.5454545,4.18181818 L10.5454545,6.08518182 C10.5454545,6.45331818 10.5852273,6.80013636 10.5056818,7.125 L10.5056818,7.125 Z M7.36363636,6.08518182 C7.36363636,6.45331818 7.3105,6.80013636 7.23095455,7.125 C7.15140909,7.44986364 7.02222727,7.73495455 6.85645455,7.98027273 C6.691,8.22590909 6.54940909,8.42222727 6.29836364,8.56922727 C6.04668182,8.71622727 5.45454545,8.79004545 5.45454545,8.79004545 L5.45454545,7.86986364 C5.45454545,7.86986364 5.76445455,7.818 5.89936364,7.71363636 C6.03395455,7.60959091 6.10936364,7.4715 6.19527273,7.29968182 C6.28086364,7.12786364 6.32222727,6.93759091 6.35277273,6.72281818 C6.383,6.50836364 6.38077273,6.09090909 6.38077273,6.09090909 L5.45454545,6.09090909 L5.45454545,4.18181818 L7.36363636,4.18181818 L7.36363636,6.08518182 Z M13.7272727,1 L2.27272727,1 C1.56986364,1 1,1.56986364 1,2.27272727 L1,10.5454545 C1,11.248 1.56986364,11.8181818 2.27272727,11.8181818 L9.18968182,11.8181818 L12.6521364,14.9061364 C12.8525909,15.1062727 13.0909091,14.9643636 13.0909091,14.6811818 L13.0909091,11.8181818 L13.7272727,11.8181818 C14.4298182,11.8181818 15,11.248 15,10.5454545 L15,2.27272727 C15,1.56986364 14.4298182,1 13.7272727,1 L13.7272727,1 Z"/>
  </defs>
  <g fill="none" fill-rule="evenodd">
    <mask id="quote-b" fill="#fff">
      <use xlink:href="#quote-a"/>
    </mask>
    <g fill="#222" mask="url(#quote-b)">
      <rect width="16" height="16"/>
    </g>
  </g>
</svg>
