<svg xmlns="http://www.w3.org/2000/svg" xmlns:xlink="http://www.w3.org/1999/xlink" width="16" height="16" viewBox="0 0 16 16">
  <defs>
    <path id="reset-a" d="M8,2.25 C6.68151988,2.25453111 5.40421552,2.7097031 4.38,3.54 L4.38,1.72 C4.38,1.30578644 4.04421356,0.97 3.63,0.97 C3.21578644,0.97 2.88,1.30578644 2.88,1.72 L2.88,6.31 L7.48,6.31 C7.89421356,6.31 8.23,5.97421356 8.23,5.56 C8.23,5.14578644 7.89421356,4.81 7.48,4.81 L5.19,4.81 C6.60857509,3.56117686 8.68138994,3.39915631 10.2767779,4.41239451 C11.8721659,5.42563271 12.6067817,7.37066528 12.0795571,9.18558916 C11.5523325,11.0005131 9.88995078,12.2492321 8,12.25 C6.87277571,12.2527971 5.79173984,11.8023655 5,11 C4.81064924,10.8088629 4.53371149,10.7332624 4.27350654,10.8016764 C4.01330158,10.8700904 3.80936073,11.0721253 3.73850654,11.3316764 C3.66765234,11.5912275 3.74064924,11.8688629 3.93,12.06 C5.76845467,13.9037613 8.61642016,14.2820388 10.8724303,12.9821196 C13.1284404,11.6822005 14.229397,9.02854343 13.5562108,6.51335124 C12.8830247,3.99815906 10.6037225,2.24922147 8,2.25 Z"/>
  </defs>
  <use fill="#231F20" xlink:href="#reset-a"/>
</svg>
