<svg xmlns="http://www.w3.org/2000/svg" xmlns:xlink="http://www.w3.org/1999/xlink" width="16" height="16" viewBox="0 0 16 16">
  <defs>
    <path id="searchmembers-a" d="M6.37428293,13.645639 C6.48394146,13.7919805 6.5936,13.9379317 6.70325854,14.0479805 C7.06852683,14.3761756 7.58013659,14.7051512 8.20101463,14.6684683 C8.7856,14.5958829 9.26052683,14.3035902 9.62579512,13.9746146 C9.73545366,13.8649561 9.8451122,13.7919805 9.9180878,13.682322 C10.0644293,13.7552976 10.356722,13.8282732 10.6486244,13.901639 C11.0505756,14.0112976 11.5387707,14.1326634 11.7748683,14.2505171 C10.8090146,15.1020293 9.5411122,15.6187122 8.15262439,15.6187122 C6.74462439,15.6187122 5.4611122,15.0872 4.49057561,14.2142244 C4.66306341,14.1529561 4.8620878,14.114322 5.0958439,14.0479805 C5.53447805,13.9379317 6.22833171,13.7919805 6.37428293,13.645639 Z M8.09139512,5.6089561 C8.6396878,5.6089561 9.07793171,5.71861463 9.47988293,5.86456585 C10.0277854,6.08349268 10.977639,6.63178537 10.977639,7.43529756 C10.977639,8.27588293 10.977639,8.71412683 10.8312976,9.3716878 C10.9042732,9.40798049 10.977639,9.44466341 11.0139317,9.51763902 C11.1235902,9.70027317 11.0872976,10.1022244 10.8679805,10.6505171 C10.8679805,10.7964683 10.7946146,11.3810537 10.3930537,11.6366634 C10.2833951,12.0382244 10.2833951,12.6594927 9.95480976,13.0610537 C9.69880976,13.3170537 9.40651707,13.5726634 9.11422439,13.7919805 C8.78563902,14.0479805 8.42037073,14.2302244 8.12807805,14.2302244 C7.83578537,14.2302244 7.5072,14.0838829 7.21490732,13.8649561 C6.92261463,13.645639 6.66661463,13.3900293 6.41100488,13.0977366 C6.22837073,12.9151024 6.1187122,12.5498341 5.97276098,11.5632976 C5.7534439,11.4173463 5.49783415,11.1250537 5.49783415,10.5404683 C5.49783415,10.3945171 5.46115122,10.2481756 5.46115122,10.1022244 C5.38817561,9.9192 5.31480976,9.7369561 5.42485854,9.55432195 C5.42485854,9.4809561 5.53412683,9.44466341 5.57080976,9.40798049 C5.53412683,9.0427122 5.46115122,8.20251707 5.46115122,7.47198049 C5.46115122,7.07002927 5.86310244,6.55841951 6.30134634,6.33949268 C6.37432195,6.30280976 6.4476878,6.22983415 6.48398049,6.19354146 C6.66661463,6.0472 6.77627317,5.93754146 7.17822439,5.86456585 C7.47051707,5.6089561 7.65315122,5.6089561 8.09139512,5.6089561 Z M2.46926829,9.10858537 C2.55434146,9.22253659 2.64019512,9.3364878 2.72526829,9.42156098 C3.01014634,9.67834146 3.40897561,9.93434146 3.89326829,9.9062439 C4.00136585,9.89219512 4.104,9.868 4.20273171,9.83717073 C4.21365854,10.0373659 4.25892683,10.2141463 4.30419512,10.3499512 C4.3084878,10.3889756 4.31278049,10.428 4.31785366,10.4670244 C4.32097561,10.493561 4.32526829,10.5204878 4.32682927,10.5470244 L4.32682927,10.5470244 L4.33268293,10.6172683 C4.17580488,10.6348293 4.01697561,10.6465366 3.85541463,10.6465366 C2.75765854,10.6465366 1.75707317,10.2320976 1,9.5515122 C1.13463415,9.50390244 1.28995122,9.47385366 1.47219512,9.42156098 C1.81365854,9.3364878 2.35531707,9.22253659 2.46926829,9.10858537 Z M3.8078439,2.84158049 C4.23516098,2.84158049 4.57701463,2.9270439 4.89038049,3.04099512 C5.31769756,3.21192195 6.05799024,3.63923902 6.05799024,4.26597073 C6.05799024,4.58870244 6.05799024,4.83533659 6.04433171,5.06323902 C5.95262439,5.12411707 5.86755122,5.1865561 5.78755122,5.25133659 L5.78755122,5.25133659 L5.67399024,5.34733659 C4.97038049,5.74343415 4.29057561,6.57348293 4.29057561,7.47182439 C4.29057561,8.02206829 4.32764878,8.6132878 4.36277073,9.04489756 C4.3491122,9.0745561 4.33740488,9.10421463 4.32686829,9.13348293 C4.2780878,9.24392195 4.24764878,9.3528 4.2273561,9.4585561 C4.0896,9.52372683 3.9553561,9.5643122 3.83633171,9.5643122 C3.60842927,9.5643122 3.35203902,9.45036098 3.12413659,9.2790439 C2.89623415,9.10850732 2.69720976,8.90909268 2.49740488,8.68119024 C2.3553561,8.53875122 2.26950244,8.25348293 2.15555122,7.48470244 C1.98462439,7.37075122 1.7856,7.14284878 1.7856,6.68743415 C1.7856,6.57309268 1.75672195,6.45953171 1.75672195,6.34558049 C1.69974634,6.20275122 1.64277073,6.0603122 1.72862439,5.91787317 C1.72862439,5.86089756 1.81369756,5.83240976 1.84257561,5.80392195 C1.81369756,5.5190439 1.75672195,4.86421463 1.75672195,4.29445854 C1.75672195,3.98109268 2.07047805,3.58226341 2.41233171,3.41133659 C2.46930732,3.38284878 2.52628293,3.32587317 2.55438049,3.29738537 C2.69720976,3.18343415 2.78228293,3.09797073 3.09564878,3.04099512 C3.32355122,2.84158049 3.46599024,2.84158049 3.8078439,2.84158049 Z M13.8174829,6.79572683 C13.9314341,6.8523122 14.1593366,6.9092878 14.387239,6.96626341 C14.7006049,7.05172683 15.0810927,7.1465561 15.2652878,7.23826341 C14.5121171,7.90206829 13.5236293,8.30519024 12.4407024,8.30519024 C12.339239,8.30519024 12.2393366,8.29777561 12.1394341,8.29114146 C12.147239,8.06245854 12.1480195,7.81543415 12.1480195,7.53953171 C12.2533854,7.56060488 12.3634341,7.57114146 12.4785561,7.56450732 C12.934361,7.50753171 13.3047024,7.27962927 13.5895805,7.02323902 C13.6750439,6.93777561 13.7605073,6.8808 13.8174829,6.79572683 Z M12.3934829,0.5 C12.8204098,0.5 13.1622634,0.585463415 13.4756293,0.699414634 C13.9029463,0.870731707 14.6436293,1.29765854 14.6436293,1.92439024 C14.6436293,2.57960976 14.6436293,2.92146341 14.529678,3.4342439 C14.5866537,3.46234146 14.6436293,3.49082927 14.6721171,3.54819512 C14.7575805,3.6902439 14.7290927,4.004 14.5581659,4.43131707 C14.5581659,4.54526829 14.5011902,5.00107317 14.1878244,5.20009756 C14.102361,5.51346341 14.102361,5.9977561 13.8459707,6.31112195 C13.6465561,6.51053659 13.4186537,6.70995122 13.1907512,6.88087805 C12.934361,7.08029268 12.6494829,7.22273171 12.4215805,7.22273171 C12.3255805,7.22273171 12.2241171,7.19853659 12.1222634,7.16263415 C12.0274341,6.41414634 11.5474341,5.732 10.7525073,5.21609756 C10.7486049,5.19112195 10.7450927,5.16926829 10.7411902,5.14312195 C10.5702634,5.02917073 10.3708488,4.80126829 10.3708488,4.34585366 L10.3708488,4.34585366 L10.342361,4.004 C10.2853854,3.86156098 10.2284098,3.71873171 10.3138732,3.57629268 C10.3138732,3.51970732 10.3993366,3.49082927 10.4278244,3.46234146 C10.3993366,3.17785366 10.342361,2.52263415 10.342361,1.95287805 C10.342361,1.6395122 10.6557268,1.24068293 10.9975805,1.0697561 C11.0545561,1.04126829 11.1115317,0.984682927 11.1400195,0.955804878 C11.2824585,0.841853659 11.367922,0.756780488 11.6808976,0.699414634 C11.9088,0.5 12.0516293,0.5 12.3934829,0.5 Z"/>
  </defs>
  <g fill="none" fill-rule="evenodd">
    <mask id="searchmembers-b" fill="#fff">
      <use xlink:href="#searchmembers-a"/>
    </mask>
    <g fill="#222" mask="url(#searchmembers-b)">
      <rect width="16" height="16"/>
    </g>
  </g>
</svg>
