<svg xmlns="http://www.w3.org/2000/svg" xmlns:xlink="http://www.w3.org/1999/xlink" width="16" height="16" viewBox="0 0 16 16">
  <defs>
    <path id="unlocked-a" d="M4.22635296,7.45945087 L3.54640838,7.45945087 C3.24445302,7.45945087 3,7.70390389 3,8.00585924 L3,13.4535916 C3,13.755547 3.24445302,14 3.54640838,14 L12.2646878,14 C12.5663707,14 12.8108237,13.755547 12.8108237,13.4535916 L12.8108237,8.00585924 C12.8108237,7.70390389 12.5663707,7.45945087 12.2646878,7.45945087 L11.5844707,7.45945087 L11.5844707,5.67905889 C11.5844707,3.65012604 9.93379965,2 7.90541185,2 C5.87702405,2 4.22635296,3.65012604 4.22635296,5.67905889 L4.22635296,6.36935934 L5.58896737,6.36935934 L5.58896737,5.67905889 C5.58896737,4.40174415 6.62809711,3.3626144 7.90541185,3.3626144 C9.18272659,3.3626144 10.2218563,4.40174415 10.2218563,5.67905889 L10.2218563,7.45945087 L5.58896737,7.45945087 L4.22635296,7.45945087 Z"/>
  </defs>
  <g fill="none" fill-rule="evenodd">
    <mask id="unlocked-b" fill="#fff">
      <use xlink:href="#unlocked-a"/>
    </mask>
    <g fill="#222" mask="url(#unlocked-b)">
      <rect width="16" height="16"/>
    </g>
  </g>
</svg>
