<?xml version="1.0" standalone="no"?>
<!DOCTYPE svg PUBLIC "-//W3C//DTD SVG 1.1//EN" "http://www.w3.org/Graphics/SVG/1.1/DTD/svg11.dtd" >
<!--
2014-12-2: Created.
-->
<svg xmlns="http://www.w3.org/2000/svg">
<metadata>
Created by FontForge 20120731 at Tue Dec  2 22:40:35 2014
 By Ryan Uesato
Created by Ryan Uesato with FontForge 2.0 (http://fontforge.sf.net)
</metadata>
<defs>
<font id="epoch-icons" horiz-adv-x="512" >
  <font-face 
    font-family="epoch-icons"
    font-weight="500"
    font-stretch="normal"
    units-per-em="512"
    panose-1="2 0 6 9 0 0 0 0 0 0"
    ascent="448"
    descent="-64"
    bbox="-0.266357 -53.333 512.266 437.333"
    underline-thickness="25.6"
    underline-position="-51.2"
    unicode-range="U+F100-F115"
  />
    <missing-glyph />
    <glyph glyph-name="uniF10A" unicode="&#xf10a;" 
d="M256 426.667c129.066 0 234.667 -105.601 234.667 -234.667s-105.601 -234.667 -234.667 -234.667s-234.667 105.601 -234.667 234.667s105.601 234.667 234.667 234.667zM384 173.866v36.2676h-109.866v109.866h-36.2676v-109.866h-109.866v-36.2676h109.866v-109.866
h36.2676v109.866h109.866z" />
    <glyph glyph-name="uniF100" unicode="&#xf100;" 
d="M498.134 2.13379c6.39941 -10.667 -1.06738 -23.4668 -13.8672 -23.4668h-456.533c-12.7998 0 -20.2666 12.7998 -13.8672 23.4668l228.268 394.666c6.39941 10.667 21.333 10.667 27.7324 0zM278.4 256h-44.8008l6.40039 -149.333h32zM256 29.8662
c16 0 25.5996 10.667 25.5996 26.667s-9.59961 26.667 -25.5996 26.667c-14.9336 0 -25.5996 -10.667 -25.5996 -26.667c0 -14.9336 10.666 -26.667 25.5996 -26.667z" />
    <glyph glyph-name="uniF10F" unicode="&#xf10f;" 
d="M426.667 224c11.7334 0 21.333 -9.59961 21.333 -21.333v-213.334c0 -11.7334 -9.59961 -21.333 -21.333 -21.333h-341.334c-11.7334 0 -21.333 9.59961 -21.333 21.333v213.334c0 11.7334 9.59961 21.333 21.333 21.333h26.667v48c0 80 65.0664 144 144 144
s144 -64 144 -144v-48h26.667zM165.333 272v-48h181.334v48c0 50.1338 -40.5332 90.667 -90.667 90.667s-90.667 -40.5332 -90.667 -90.667z" />
    <glyph glyph-name="uniF10D" unicode="&#xf10d;" 
d="M78.9336 88.5332l293.333 293.333l73.5996 -73.5996l-293.333 -293.333l-29.8662 29.8662l29.8662 -29.8662l-109.866 -36.2666l36.2666 109.866v0zM372.267 350.934l-263.467 -262.4l29.8672 -29.8662l263.467 262.399zM152.533 44.7998l263.467 263.467
l-5.33301 5.33301l-263.467 -263.466zM485.333 374.4c7.4668 -7.4668 7.4668 -19.2002 0 -26.667l-26.666 -26.667l-73.6006 73.6006l26.667 26.666c7.4668 7.4668 19.2002 7.4668 26.667 0z" />
    <glyph glyph-name="uniF114" unicode="&#xf114;" 
d="M424.533 139.733c-3.2002 -9.59961 -7.4668 -20.2666 -12.7998 -29.8672l35.2002 -58.666l-50.1338 -50.1338l-58.666 35.2002c-9.60059 -5.33301 -19.2002 -9.59961 -29.8672 -12.7998l-17.0664 -66.1338h-70.4004l-17.0664 66.1338
c-10.667 3.2002 -20.2666 7.4668 -29.8672 12.7998l-58.666 -35.2002l-50.1338 50.1338l35.2002 58.666c-5.33301 9.60059 -9.59961 19.2002 -12.7998 29.8672l-66.1338 17.0664v70.4004l65.0674 16c3.19922 10.666 7.46582 21.333 12.7998 30.9336l-35.2002 58.666
l50.1338 50.1338l58.666 -35.2002c9.60059 5.33301 20.2666 9.59961 30.9336 12.7998l17.0664 66.1338h70.4004l16 -65.0674c10.666 -3.19922 21.333 -7.46582 30.9336 -12.7998l58.666 35.2002l50.1338 -50.1338l-35.2002 -58.666
c5.33301 -9.60059 9.59961 -20.2666 12.7998 -30.9336l66.1338 -17.0664v-70.4004zM256 74.667c65.0664 0 117.333 52.2666 117.333 117.333s-52.2666 117.333 -117.333 117.333s-117.333 -52.2666 -117.333 -117.333s52.2666 -117.333 117.333 -117.333z" />
    <glyph glyph-name="uniF106" unicode="&#xf106;" 
d="M445.866 407.467c76.8008 -336 -137.6 -439.467 -193.066 -451.2c-56.5332 11.7334 -269.866 115.2 -194.133 451.2c105.6 -44.7998 194.133 18.1328 194.133 18.1328s87.4668 -62.9326 193.066 -18.1328zM227.2 97.0664l162.133 162.134l-22.3994 22.3994
l-139.733 -139.733l-72.5332 72.5342l-22.4004 -22.4004z" />
    <glyph glyph-name="uniF104" unicode="&#xf104;" 
d="M85.333 293.333v-32h218.667c60.0332 0 106.667 -54.2568 106.667 -117.333v-186.667h32v186.667c0 77.7148 -57.9092 149.333 -138.667 149.333h-218.667zM193.488 146.551l22.6279 22.6279l-108.155 108.154l108.155 108.155l-22.6279 22.6279l-130.782 -130.783z" />
    <glyph glyph-name="uniF111" unicode="&#xf111;" 
d="M471.467 377.6c54.3994 -54.3994 54.3994 -141.866 0 -196.267l-215.467 -215.467l-215.467 214.4c-54.3994 54.4004 -54.3994 141.867 0 196.267c54.4004 54.4004 141.867 54.4004 196.267 0l19.2002 -19.2002l19.2002 20.2666
c54.3994 54.4004 141.866 54.4004 196.267 0zM235.733 216.533v18.1338h-54.4004v56.5332h-18.1328v-56.5332h-53.334v-18.1338h53.334v-55.4668h18.1328v55.4668h54.4004zM360.533 131.2v192h-33.0664l-61.8672 -49.0664l19.2002 -24.5342l22.4004 18.1338
c2.13281 2.13281 7.4668 6.40039 13.8662 12.7998l-1.06641 -20.2666v-18.1328v-110.934h40.5332z" />
    <glyph glyph-name="uniF112" unicode="&#xf112;" 
d="M410.667 94.9336v-78.9336c-41.6006 -36.2666 -94.9336 -58.667 -154.667 -58.667c-130.134 0 -234.667 104.533 -234.667 234.667s104.533 234.667 234.667 234.667s234.667 -104.533 234.667 -234.667c0 -53.333 -18.1338 -102.4 -49.0674 -141.866v44.7998
c0 73.5996 -55.4658 134.399 -124.8 134.399h-155.733l74.667 74.667l-22.4004 22.4004l-117.333 -117.334l117.333 -118.399l22.4004 22.3994l-84.2666 84.2666h166.399c51.2002 0 92.8008 -45.8662 92.8008 -102.399z" />
    <glyph glyph-name="uniF105" unicode="&#xf105;" 
d="M256 405.333c-117.333 0 -213.333 -96 -213.333 -213.333s96 -213.333 213.333 -213.333s213.333 96 213.333 213.333s-96 213.333 -213.333 213.333zM256 426.667v0c130.134 0 234.667 -104.533 234.667 -234.667s-104.533 -234.667 -234.667 -234.667
s-234.667 104.533 -234.667 234.667s104.533 234.667 234.667 234.667zM253.866 58.667c-17.0664 0 -28.7998 12.7998 -28.7998 29.8662c0 18.1338 12.7998 29.8672 28.7998 29.8672c17.0674 0 28.8008 -12.8008 28.8008 -29.8672s-10.667 -29.8662 -28.8008 -29.8662z
M295.467 201.6c-14.9336 -18.1328 -21.333 -33.0664 -20.2666 -52.2666v-8.5332h-40.5332l-1.06738 9.60059c-2.13281 20.2666 5.33398 41.5996 23.4668 62.9326c14.9336 17.0674 24.5332 30.9336 24.5332 45.8672c0 16 -9.59961 26.666 -32 27.7334
c-13.8662 0 -28.7998 -4.2666 -38.3994 -11.7334l-11.7334 34.1328c13.8662 8.5332 36.2666 16 60.7998 16c48 0 69.333 -27.7334 69.333 -58.666c0 -26.667 -17.0664 -45.8672 -34.1328 -65.0674z" />
    <glyph glyph-name="uniF113" unicode="&#xf113;" 
d="M493.866 -9.59961c9.60059 -9.60059 9.60059 -25.6006 -1.06641 -35.2002c-5.33301 -5.33398 -11.7334 -7.4668 -18.1328 -7.4668c-6.40039 0 -12.8008 2.13281 -18.1338 7.4668l-129.066 129.066c-6.40039 6.40039 -8.5332 16 -6.40039 24.5332l-10.666 10.667
c0 1.06641 -1.06738 1.06641 -1.06738 2.13281c-32 -27.7334 -72.5332 -44.7998 -118.399 -44.7998c-99.2002 0 -180.267 80 -180.267 180.267c0 99.2002 80 180.267 180.267 180.267s181.333 -81.0664 181.333 -181.333c0 -44.7998 -17.0664 -86.4004 -44.7998 -118.4
c1.06641 0 1.06641 0 2.13281 -1.06641l10.667 -10.667c8.5332 2.13379 18.1338 0 24.5332 -6.39941zM190.934 101.333c86.3994 0 154.666 70.4004 154.666 155.733c0 85.334 -69.333 154.667 -154.666 154.667c-85.334 0 -154.667 -70.4004 -154.667 -155.733
s69.333 -154.667 154.667 -154.667z" />
    <glyph glyph-name="uniF107" unicode="&#xf107;" 
d="M256 344.533c135.467 0 256 -152.533 256 -152.533s-120.533 -152.533 -256 -152.533s-256 152.533 -256 152.533s120.533 152.533 256 152.533zM256 64c70.4004 0 128 57.5996 128 128s-57.5996 128 -128 128s-128 -57.5996 -128 -128s57.5996 -128 128 -128zM256 288
c53.333 0 96 -42.667 96 -96s-42.667 -96 -96 -96s-96 42.667 -96 96c0 11.7334 3.2002 22.4004 6.40039 33.0664c7.46582 -12.7998 21.333 -21.333 36.2666 -21.333c22.3994 0 41.5996 18.1328 41.5996 41.5996c0 16 -8.5332 28.8008 -21.333 36.2666
c10.666 4.2666 21.333 6.40039 33.0664 6.40039z" />
    <glyph glyph-name="uniF103" unicode="&#xf103;" 
d="M448 426.667c23.4668 0 42.667 -19.2002 42.667 -42.667v-277.333c0 -23.4668 -19.2002 -42.667 -42.667 -42.667h-21.333v-96c0 -9.59961 -8.5332 -13.8662 -14.9336 -7.4668l-116.267 103.467h-231.467c-23.4668 0 -42.667 19.2002 -42.667 42.667v277.333
c0 23.4668 19.2002 42.667 42.667 42.667h384zM234.667 256v62.9336h-64v-64h29.8662s0 -13.8672 -1.06641 -21.334c-1.06641 -7.46582 -2.13379 -13.8662 -5.33301 -19.1992c-2.13379 -5.33398 -5.33398 -10.667 -9.60059 -13.8672s-14.9336 -5.33301 -14.9336 -5.33301
v-30.9336s20.2666 2.13379 28.8008 7.4668c8.5332 5.33301 13.8662 11.7334 19.1992 20.2666c5.33398 8.5332 9.60059 18.1338 12.8008 28.7998c2.13281 11.7334 4.2666 22.4004 4.2666 35.2002zM340.267 220.8c2.13379 11.7334 1.06641 23.4668 1.06641 34.1338v64h-64v-64
h38.4004s-1.06641 -13.8672 -2.13379 -21.334c-1.06641 -7.46582 -3.19922 -13.8662 -6.39941 -19.1992c-3.2002 -5.33398 -7.4668 -10.667 -11.7334 -13.8672s-18.1338 -5.33301 -18.1338 -5.33301v-30.9336c21.334 0 22.4004 2.13379 30.9336 7.4668
s16 11.7334 21.333 20.2666c5.33398 8.5332 7.4668 18.1338 10.667 28.7998z" />
    <glyph glyph-name="uniF10C" unicode="&#xf10c;" 
d="M394.667 -32v224h21.333v-245.333h-405.333v405.333h245.333v-21.333h-224v-362.667h362.667zM391.467 358.4l-214.4 -213.334l30.9336 -30.9326l214.4 213.333zM391.467 388.267v0l60.7998 -60.7998l-244.267 -244.267l-60.7998 60.7998zM464 339.2l-60.7998 60.7998
l22.3994 22.4004c6.40039 6.39941 16 6.39941 22.4004 0l38.4004 -38.4004c6.39941 -6.40039 6.39941 -16 0 -22.4004zM117.333 53.333l29.8672 90.667l60.7998 -60.7998z" />
    <glyph glyph-name="uniF10B" unicode="&#xf10b;" 
d="M397.866 414.934c30.9336 -18.1338 45.8672 -50.1338 37.334 -73.6006c-32 33.0674 -73.6006 57.6006 -120.533 69.334c17.0664 19.1992 52.2666 22.3994 83.1992 4.2666zM256 381.866c117.333 0 212.267 -94.9326 212.267 -212.267
c0 -117.333 -94.9336 -212.267 -212.267 -212.267s-212.267 94.9336 -212.267 212.267c0 117.334 94.9336 212.267 212.267 212.267zM256 -7.4668c97.0664 0 177.066 80 177.066 177.066c0 97.0674 -80 177.067 -177.066 177.067s-177.066 -78.9336 -177.066 -177.067
c0 -98.1328 80 -177.066 177.066 -177.066zM274.134 177.066l69.333 -69.333c6.39941 -6.40039 6.39941 -18.1338 0 -24.5332c-4.2666 -3.2002 -8.5332 -5.33398 -12.7998 -5.33398c-5.33398 0 -9.60059 2.13379 -12.8008 5.33398l-74.666 74.666
c-2.13379 1.06738 -3.2002 3.2002 -4.2666 5.33398c-1.06738 2.13281 -1.06738 4.2666 -1.06738 6.39941v141.867c0 10.667 8.53418 18.1328 18.1338 18.1328c10.667 0 18.1338 -8.5332 18.1338 -18.1328v-134.4zM197.333 409.6
c-46.9326 -10.666 -88.5332 -35.1992 -120.533 -70.3994c-8.5332 24.5332 6.40039 56.5332 37.334 74.666c30.9326 18.1338 66.1328 16 83.1992 -4.2666z" />
    <glyph glyph-name="uniF108" unicode="&#xf108;" 
d="M219.733 404.267c203.733 -115.2 231.467 -359.467 122.667 -423.467c6.39941 23.4668 1.06641 49.0664 -9.60059 67.2002c-22.3994 40.5332 -81.0664 56.5332 -65.0664 109.866c-68.2666 -49.0664 -90.667 -123.732 -78.9336 -176
c-88.5332 40.5342 -93.8662 140.801 -67.2002 203.733c34.1338 80 139.733 123.733 98.1338 218.667z" />
    <glyph glyph-name="uniF109" unicode="&#xf109;" 
d="M411.733 224c44.7998 -145.066 -16 -218.667 -66.1338 -252.8c19.2002 67.2002 -140.8 104.533 -97.0664 208c-91.7334 -71.4668 -30.9336 -189.867 -12.7998 -221.867c-65.0664 11.7334 -188.8 49.0674 -139.733 165.334
c8.5332 -42.667 44.7998 -57.6006 82.1338 -67.2002c-26.667 46.9336 -96 189.866 7.46582 259.2c-22.3994 -45.8672 2.13379 -78.9336 35.2002 -107.733c24.5332 62.9326 105.601 137.6 50.1338 219.733c131.2 -61.8672 74.666 -277.334 70.3994 -292.267
c36.2666 4.2666 66.1338 24.5332 70.4004 89.5996z" />
    <glyph glyph-name="uniF101" unicode="&#xf101;" 
d="M462.934 370.134c51.2002 -52.2676 51.2002 -136.534 0 -187.733l-206.934 -206.934l-206.934 206.934c-52.2666 52.2666 -52.2666 135.466 0 187.733c52.2666 52.2666 135.467 52.2666 187.733 0l19.2002 -19.2002l19.2002 19.2002
c52.2666 52.2666 135.467 52.2666 187.733 0z" />
    <glyph glyph-name="uniF110" unicode="&#xf110;" 
d="M490.667 288v-233.6l-137.601 137.6zM256 155.733l-234.667 164.267v28.7998h469.334v-28.7998zM256 126.934c2.13379 0 5.33301 1.06641 8.5332 3.2002l67.2002 46.9326l139.733 -141.866h-432l141.866 140.8l67.2002 -46.9336
c2.13379 -1.06641 5.33301 -2.13281 7.4668 -2.13281zM158.934 192l-137.601 -137.6v233.6z" />
    <glyph glyph-name="uniF102" unicode="&#xf102;" 
d="M256 426.667c130.134 0 234.667 -104.533 234.667 -234.667s-104.533 -234.667 -234.667 -234.667s-234.667 104.533 -234.667 234.667s104.533 234.667 234.667 234.667zM226.134 190.934v20.2666h-59.7334v62.9336h-20.2666v-62.9336h-59.7334v-20.2666h59.7334
v-61.8672h20.2666v61.8672h59.7334zM364.8 96v213.333h-37.333l-68.2666 -54.3994l21.333 -26.667l24.5332 19.2002c3.2002 2.13281 8.5332 7.4668 16 14.9336l-1.06641 -22.4004v-20.2666v-123.733h44.7998z" />
    <glyph glyph-name="uniF10E" unicode="&#xf10e;" 
d="M297.6 267.733c6.40039 -4.2666 12.8008 -9.59961 19.2002 -16c48 -48 48 -124.8 0 -172.8l-86.3994 -86.4004c-48 -48 -124.801 -48 -172.801 0s-48 124.8 0 172.8l54.4004 54.4004c-1.06641 -19.2002 3.2002 -39.4668 9.59961 -58.667l-29.8662 -29.8662
c-28.7998 -28.7998 -28.7998 -74.667 0 -103.467s74.667 -28.7998 103.467 0l86.3994 86.4004c28.8008 28.7998 28.8008 74.666 0 103.466c-5.33301 6.40039 -11.7334 10.667 -19.1992 13.8672c0 1.06641 1.06641 2.13281 2.13281 3.2002zM454.4 390.4
c48 -46.9336 48 -124.801 0 -172.801l-54.4004 -54.3994c1.06641 19.2002 -3.2002 39.4668 -9.59961 58.666l29.8662 29.8672c28.7998 28.7998 28.7998 74.667 0 103.467s-74.667 28.7998 -103.467 0l-86.3994 -86.4004c-28.8008 -28.7998 -28.8008 -74.666 0 -103.467
c5.33301 -6.39941 11.7334 -10.666 19.1992 -13.8662c0 -1.06641 -1.06641 -2.13379 -2.13281 -3.2002l-33.0664 -33.0664c-6.40039 5.33301 -12.8008 9.59961 -19.2002 16c-48 48 -48 124.8 0 172.8l86.3994 86.4004c48 48 124.801 48 172.801 0z" />
    <glyph glyph-name="uniF115" unicode="&#xf115;" 
d="M256 405.333c-117.333 0 -213.333 -96 -213.333 -213.333s96 -213.333 213.333 -213.333s213.333 96 213.333 213.333s-96 213.333 -213.333 213.333zM256 426.667v0c129.066 0 234.667 -105.601 234.667 -234.667s-105.601 -234.667 -234.667 -234.667
s-234.667 105.601 -234.667 234.667s105.601 234.667 234.667 234.667zM384 173.866h-109.866v-109.866h-36.2676v109.866h-109.866v36.2676h109.866v109.866h36.2676v-109.866h109.866v-36.2676z" />
  </font>
</defs>
</svg>
