<svg xmlns="http://www.w3.org/2000/svg" viewBox="0 0 48 48"><title>alert</title><g id="icons_-_revised" data-name="icons - revised"><path d="M37.27,3.12c-2.9-1.67-6.21-1.43-7.81.44a23.19,23.19,0,0,1,11.33,6.53C41.61,7.78,40.16,4.8,37.27,3.12Z"/><path d="M24,6.2A19.9,19.9,0,1,0,43.9,26.1,19.9,19.9,0,0,0,24,6.2Zm0,36.48A16.58,16.58,0,1,1,40.58,26.1,16.6,16.6,0,0,1,24,42.68Z"/><path d="M25.66,25.41V12.83a1.66,1.66,0,0,0-3.32,0V26.1a1.83,1.83,0,0,0,.13.64,1.77,1.77,0,0,0,.36.53l7,7A1.66,1.66,0,1,0,32.21,32Z"/><path d="M18.54,3.56c-1.6-1.87-4.91-2.11-7.81-.44s-4.34,4.66-3.52,7A23.09,23.09,0,0,1,18.54,3.56Z"/></g></svg>