<svg xmlns="http://www.w3.org/2000/svg" viewBox="0 0 48 48"><title>crownCircle</title><g id="icons"><path d="M24,0A24,24,0,1,0,48,24,24,24,0,0,0,24,0ZM37.21,36C37,36.07,33,38.05,24,38.05h0c-8.95,0-13-2-13.21-2.06a1.44,1.44,0,0,1,1.27-2.58c.07,0,3.8,1.76,11.94,1.76s11.87-1.73,11.94-1.76A1.44,1.44,0,0,1,37.21,36Zm1.46-17.7-.3,0L36.63,31.8S32.91,33.62,24,33.62,11.37,31.8,11.37,31.8L9.63,18.27l-.3,0a2.34,2.34,0,1,1,1.75-.8l6.57,5.73,5.18-8.92a2.33,2.33,0,1,1,2.34,0l5.18,8.92,6.57-5.73a2.33,2.33,0,1,1,1.75.8Z"/></g></svg>