<svg xmlns="http://www.w3.org/2000/svg" viewBox="0 0 48 48"><defs><style>.cls-1{fill:#231f20;}</style></defs><title>expand-dot</title><g id="icon"><path class="cls-1" d="M18,42H8.83L20.14,30.69a7.83,7.83,0,0,1-2.83-2.83L6,39.17V30a2,2,0,0,0-4,0V44a1.72,1.72,0,0,0,0,.39,1.21,1.21,0,0,0,0,.18l.06.2.11.19a1.09,1.09,0,0,0,.08.15,1.8,1.8,0,0,0,.55.55,1.19,1.19,0,0,0,.15.09l.2.1a1.17,1.17,0,0,0,.2.06l.17.05A1.72,1.72,0,0,0,4,46H18a2,2,0,0,0,0-4Z"/><circle cx="24" cy="24" r="3.79"/><path class="cls-1" d="M46,3.61a.84.84,0,0,0-.05-.17,1.17,1.17,0,0,0-.06-.2l-.1-.2-.08-.15a2,2,0,0,0-.56-.55A.55.55,0,0,0,45,2.26a1.18,1.18,0,0,0-.19-.11l-.2-.06-.18,0A1.72,1.72,0,0,0,44,2H30a2,2,0,0,0,0,4h9.17L27.86,17.31a7.83,7.83,0,0,1,2.83,2.83L42,8.83V18a2,2,0,0,0,4,0V4A1.72,1.72,0,0,0,46,3.61Z"/></g></svg>