<svg xmlns="http://www.w3.org/2000/svg" viewBox="0 0 48 48"><title>link</title><g id="coach_marks" data-name="coach marks"><path d="M27.9,16.87,24.81,20a2.46,2.46,0,0,0-.22.34,6.78,6.78,0,0,1,1.85,11L18.33,39.4A6.88,6.88,0,0,1,8.6,29.67l2.76-2.76a15.93,15.93,0,0,1-.95-5.53L5.35,26.43A11.47,11.47,0,0,0,21.56,42.65l8.12-8.12A11.48,11.48,0,0,0,27.9,16.87Z"/><path d="M42.65,5.35a11.47,11.47,0,0,0-16.21,0l-8.11,8.12a11.45,11.45,0,0,0,0,16.2,10.79,10.79,0,0,0,1.79,1.46l3.07-3.07a2.25,2.25,0,0,0,.22-.35,6.79,6.79,0,0,1-1.85-11l8.12-8.1a6.88,6.88,0,0,1,9.72,9.73l-2.76,2.75a16,16,0,0,1,1,5.54l5.06-5.05A11.49,11.49,0,0,0,42.65,5.35Z"/></g></svg>