<svg xmlns="http://www.w3.org/2000/svg" viewBox="0 0 48 48">
  <title>quote</title>
  <path d="M42,2H6A4,4,0,0,0,2,6V32a4,4,0,0,0,4,4H27.74l10.88,9.71c.63.63,1.38.18,1.38-.71V36h2a4,4,0,0,0,4-4V6A4,4,0,0,0,42,2ZM22,18a13.67,13.67,0,0,1-.42,3.27,8.32,8.32,0,0,1-1.17,2.69,5.39,5.39,0,0,1-1.76,1.85,9.62,9.62,0,0,1-2.65.69V23.59a4.07,4.07,0,0,0,1.4-.49,3.53,3.53,0,0,0,.93-1.3A5.68,5.68,0,0,0,18.82,20a17.87,17.87,0,0,0,.09-2H16V12h6Zm9.88,3.27a8.39,8.39,0,0,1-1,2.69,6,6,0,0,1-2,1.85c-.79.46-.87.69-2.87.69V23.59a5,5,0,0,0,1.69-.49,3.86,3.86,0,0,0,1.08-1.3A6.29,6.29,0,0,0,29.33,20c.1-.68.16-2,.16-2H26V12h6v6A14,14,0,0,1,31.88,21.25Z"/>
</svg>