<svg xmlns="http://www.w3.org/2000/svg" viewBox="0 0 48 48"><defs><style>.cls-1{fill:#fff;}.cls-2{fill:#000100;}</style></defs><title>reply-circle copy</title><g id="source"><rect class="cls-1" x="-362.32" y="-344.67" width="844" height="363.33"/></g><g id="icons"><path class="cls-2" d="M24,2A22,22,0,1,0,46,24,22,22,0,0,0,24,2Zm0,41A19,19,0,1,1,41.4,31.6c-.7-6.25-5.65-11.1-11.64-11.1H15.14l7-7L20,11.39,9,22.45,20,33.5l2.12-2.12L14.25,23.5H29.76c4.82,0,8.74,4.32,8.74,9.63v3.12A19,19,0,0,1,24,43Z"/></g></svg>