<svg xmlns="http://www.w3.org/2000/svg" viewBox="0 0 48 48"><title>settings</title><g id="icons"><path d="M39.76,28.86,46,27.3V20.7l-6.23-1.56a16.74,16.74,0,0,0-1.19-2.86l3.31-5.51L37.22,6.1l-5.5,3.31a16.1,16.1,0,0,0-2.87-1.2L27.3,2H20.7L19.14,8.21a16.1,16.1,0,0,0-2.87,1.2l-5.49-3.3L6.11,10.78l3.3,5.5a16.74,16.74,0,0,0-1.19,2.86L2,20.7v6.6l6.23,1.56A16.53,16.53,0,0,0,9.42,31.7L6.11,37.22l4.67,4.66,5.52-3.31a15.65,15.65,0,0,0,2.83,1.18L20.7,46h6.6l1.56-6.25a15.65,15.65,0,0,0,2.83-1.18l5.53,3.32,4.67-4.67L38.58,31.7A15.74,15.74,0,0,0,39.76,28.86ZM24,35A11,11,0,1,1,35,24,11,11,0,0,1,24,35Z"/></g></svg>