<svg xmlns="http://www.w3.org/2000/svg" viewBox="0 0 48 48"><title>sticky-unread</title><g id="icons"><path d="M29.83,30.68l-3.44-3.44L17.64,36,7.79,40.21,12,30.36l8.75-8.75-3.44-3.44a4.85,4.85,0,0,1-1.38-2.93A16,16,0,1,0,33,32.07,4.81,4.81,0,0,1,29.83,30.68Z"/></g><g id="Layer_1" data-name="Layer 1"><path d="M47.35,8.78,39.22.65a2.21,2.21,0,0,0-3.13,3.13l8.13,8.13a2.21,2.21,0,0,0,3.13-3.13Z"/><path d="M22.64,12.85a2.66,2.66,0,1,0-3.76,3.75l5,5-10,10L12,36l4.38-1.88,10-10,5,5a2.66,2.66,0,1,0,3.75-3.76Z"/><rect x="27.45" y="8.17" width="14.16" height="10.62" transform="translate(0.58 28.36) rotate(-45)"/></g></svg>