<svg xmlns="http://www.w3.org/2000/svg" viewBox="0 0 48 48"><defs><style>.cls-1{fill:#231f20;}</style></defs><title>unverified</title><g id="icons"><path class="cls-1" d="M24,4A20,20,0,1,1,4,24,20,20,0,0,1,24,4m0-2A22,22,0,1,0,46,24,22,22,0,0,0,24,2Z"/><path class="cls-1" d="M23.8,36.53a2.81,2.81,0,1,1,2.74-2.81A2.69,2.69,0,0,1,23.8,36.53ZM27.73,23.1A6.71,6.71,0,0,0,25.82,28l0,.76H22l-.07-.94a8.05,8.05,0,0,1,2.16-5.91c1.37-1.62,2.27-2.88,2.27-4.28s-.93-2.52-2.95-2.56a6.37,6.37,0,0,0-3.6,1.08l-1.08-3.17a11,11,0,0,1,5.65-1.47c4.47,0,6.52,2.59,6.52,5.47C30.86,19.53,29.27,21.33,27.73,23.1Z"/></g></svg>