<svg xmlns="http://www.w3.org/2000/svg" viewBox="0 0 48 48">
  <title>unwatch</title>
  <path d="M39.22,15.68l-3.64,5.2A12.36,12.36,0,0,1,36,24,12,12,0,0,1,25,36l-1.6,2.28.57,0C36.7,38.25,48,24,48,24A51.61,51.61,0,0,0,39.22,15.68Z"/><path d="M34.18,4.65l-4.25,6.08a19.49,19.49,0,0,0-5.93-1C11.3,9.75,0,24,0,24A49.75,49.75,0,0,0,12.93,35l-4.7,6.71,4.91,3.45,26-37.08ZM12,24A12,12,0,0,1,24,12a11.86,11.86,0,0,1,4.43.87l-1.78,2.54a8.62,8.62,0,0,0-5.71.16,3.93,3.93,0,1,1-5.37,5.37,8.8,8.8,0,0,0,1.26,8.49L15.05,32A12,12,0,0,1,12,24Z"/><path d="M33,24.6l-5.34,7.63A9,9,0,0,0,33,24.6Z"/>
</svg>